<svg width="24" height="24" viewBox="0 0 24 24" fill="none" xmlns="http://www.w3.org/2000/svg">
<path d="M5 24C4.26667 24 3.63889 23.7389 3.11667 23.2167C2.59444 22.6944 2.33333 22.0667 2.33333 21.3333V4.66667C2.33333 4.29848 2.03486 4 1.66667 4C1.29848 4 1 3.70152 1 3.33333V2.22222C1 1.7313 1.39797 1.33333 1.88889 1.33333H7C7.36819 1.33333 7.66667 1.03486 7.66667 0.666667C7.66667 0.298477 7.96514 0 8.33333 0H15C15.3682 0 15.6667 0.298477 15.6667 0.666667C15.6667 1.03486 15.9651 1.33333 16.3333 1.33333H21.4444C21.9354 1.33333 22.3333 1.7313 22.3333 2.22222V3.33333C22.3333 3.70152 22.0349 4 21.6667 4C21.2985 4 21 4.29848 21 4.66667V21.3333C21 22.0667 20.7389 22.6944 20.2167 23.2167C19.6944 23.7389 19.0667 24 18.3333 24H5ZM18.3333 7C18.3333 5.34315 16.9902 4 15.3333 4H8C6.34314 4 5 5.34315 5 7V18.3333C5 19.9902 6.34315 21.3333 8 21.3333H15.3333C16.9902 21.3333 18.3333 19.9902 18.3333 18.3333V7ZM7.66667 17.3333C7.66667 18.0697 8.26362 18.6667 9 18.6667C9.73638 18.6667 10.3333 18.0697 10.3333 17.3333V8C10.3333 7.26362 9.73638 6.66667 9 6.66667C8.26362 6.66667 7.66667 7.26362 7.66667 8V17.3333ZM13 17.3333C13 18.0697 13.597 18.6667 14.3333 18.6667C15.0697 18.6667 15.6667 18.0697 15.6667 17.3333V8C15.6667 7.26362 15.0697 6.66667 14.3333 6.66667C13.597 6.66667 13 7.26362 13 8V17.3333Z" fill="#EE2F15"/>
</svg>
