<svg width="24" height="24" viewBox="0 0 24 24" fill="none" xmlns="http://www.w3.org/2000/svg">
<path d="M11.2356 0.629665C11.3994 -0.209888 12.6006 -0.209888 12.7644 0.629665L13.9629 6.77316C14.0626 7.28404 14.6257 7.55523 15.0873 7.31463L20.6377 4.42127C21.3962 4.02587 22.1451 4.96498 21.5909 5.61649L17.535 10.3839C17.1977 10.7804 17.3368 11.3898 17.8127 11.6006L23.5354 14.1361C24.3175 14.4826 24.0502 15.6537 23.1953 15.6266L16.9391 15.428C16.4188 15.4115 16.0291 15.9001 16.161 16.4037L17.7467 22.4588C17.9634 23.2863 16.8812 23.8074 16.3694 23.1221L12.624 18.107C12.3125 17.69 11.6875 17.69 11.376 18.107L7.63062 23.1221C7.11879 23.8074 6.03657 23.2863 6.25327 22.4588L7.83899 16.4037C7.97086 15.9001 7.58116 15.4115 7.06091 15.428L0.804746 15.6266C-0.0502039 15.6537 -0.317491 14.4826 0.464566 14.1361L6.18733 11.6006C6.66323 11.3898 6.80231 10.7804 6.46503 10.3839L2.40912 5.61649C1.85485 4.96499 2.60377 4.02587 3.36228 4.42127L8.91273 7.31462C9.37429 7.55523 9.93743 7.28404 10.0371 6.77316L11.2356 0.629665Z" fill="#FAFAFA"/>
</svg>
