<svg width="24" height="24" viewBox="0 0 24 24" fill="none" xmlns="http://www.w3.org/2000/svg">
<path fill-rule="evenodd" clip-rule="evenodd" d="M12 22.8001C12 22.1373 12.5372 21.6001 13.2 21.6001H22.8C23.4628 21.6001 24 22.1373 24 22.8001C24 23.4629 23.4628 24.0001 22.8 24.0001H13.2C12.5372 24.0001 12 23.4629 12 22.8001Z" fill="#FAFAFA"/>
<path fill-rule="evenodd" clip-rule="evenodd" d="M22.5283 7.31993C24.4601 5.38057 24.378 2.83382 22.9356 1.27419C22.2322 0.513717 21.2311 0.0279564 20.0972 0.00117235C18.9592 -0.0257076 17.78 0.40952 16.692 1.31982C16.6642 1.3431 16.6374 1.36762 16.6118 1.39333L1.04935 17.0179C0.377316 17.6926 0 18.6061 0 19.5584V21.5906C0 22.9124 1.07036 24 2.4046 24H4.41918C5.37644 24 6.29429 23.6188 6.96983 22.9405L22.5283 7.31993ZM18.2485 4.55154C17.7799 4.08291 17.0201 4.08291 16.5515 4.55154C16.0829 5.02017 16.0829 5.77997 16.5515 6.2486L17.7515 7.4486C18.2201 7.91722 18.9799 7.91722 19.4485 7.4486C19.9171 6.97997 19.9171 6.22017 19.4485 5.75154L18.2485 4.55154Z" fill="#FAFAFA"/>
</svg>
