<svg width="170" height="36" viewBox="0 0 170 36" fill="none" xmlns="http://www.w3.org/2000/svg">
<path d="M4.56826 35.9006C3.11172 35.9006 1.98621 35.5034 1.19172 34.7089C0.397242 33.8813 0 32.7227 0 31.233V4.66758C0 3.14482 0.397242 1.9862 1.19172 1.19172C1.98621 0.397236 3.11172 0 4.56826 0C6.05791 0 7.18343 0.397236 7.9448 1.19172C8.73928 1.9862 9.13652 3.14482 9.13652 4.66758V13.9531H23.5862V4.66758C23.5862 3.14482 23.9668 1.9862 24.7282 1.19172C25.5227 0.397236 26.6648 0 28.1544 0C29.611 0 30.7199 0.397236 31.4813 1.19172C32.2758 1.9862 32.6731 3.14482 32.6731 4.66758V31.233C32.6731 32.7227 32.2758 33.8813 31.4813 34.7089C30.7199 35.5034 29.611 35.9006 28.1544 35.9006C26.6648 35.9006 25.5227 35.5034 24.7282 34.7089C23.9668 33.8813 23.5862 32.7227 23.5862 31.233V21.451H9.13652V31.233C9.13652 32.7227 8.75584 33.8813 7.99447 34.7089C7.23308 35.5034 6.09101 35.9006 4.56826 35.9006ZM58.7233 36C55.744 36 53.1619 35.4869 50.9771 34.4607C48.8254 33.4014 47.1702 31.9117 46.0116 29.9917C44.853 28.0717 44.2737 25.8042 44.2737 23.189C44.2737 20.6731 44.8199 18.4718 45.9123 16.5849C47.0378 14.6649 48.5606 13.1752 50.4806 12.1159C52.4337 11.0235 54.6516 10.4773 57.1343 10.4773C58.955 10.4773 60.6102 10.7752 62.0999 11.3711C63.5895 11.9338 64.864 12.778 65.9233 13.9035C66.9826 14.9959 67.7771 16.32 68.3068 17.8759C68.8695 19.4318 69.1509 21.1697 69.1509 23.0897C69.1509 23.7517 68.9688 24.2483 68.6047 24.5793C68.2405 24.8773 67.6612 25.0262 66.8668 25.0262H51.6723V20.8552H62.6957L61.9012 21.5007C61.9012 20.2759 61.7357 19.2828 61.4047 18.5214C61.0737 17.76 60.5771 17.1807 59.915 16.7835C59.2861 16.3862 58.4916 16.1876 57.5316 16.1876C56.5054 16.1876 55.6116 16.4359 54.8502 16.9324C54.1219 17.3959 53.5592 18.0911 53.162 19.018C52.7647 19.9448 52.5661 21.1035 52.5661 22.4938V22.9407C52.5661 25.2911 53.0792 26.9793 54.1054 28.0055C55.1647 28.9986 56.7868 29.4952 58.9716 29.4952C59.6999 29.4952 60.5275 29.4124 61.4544 29.2469C62.4144 29.0483 63.3247 28.7835 64.1854 28.4524C65.0461 28.1214 65.7909 28.0717 66.4199 28.3035C67.0488 28.5021 67.5288 28.8662 67.8599 29.3959C68.224 29.8924 68.4226 30.4717 68.4557 31.1338C68.4888 31.7628 68.3398 32.3917 68.0088 33.0207C67.6778 33.6165 67.1316 34.08 66.3702 34.411C65.2116 34.9407 63.9702 35.3379 62.6461 35.6027C61.355 35.8676 60.0475 36 58.7233 36ZM88.4481 36C86.5612 36 84.8895 35.6524 83.433 34.9572C82.0095 34.2621 80.884 33.3186 80.0564 32.1269C79.2619 30.9021 78.8647 29.5117 78.8647 27.9559C78.8647 26.1683 79.3281 24.7614 80.255 23.7352C81.1819 22.709 82.6716 21.9807 84.724 21.5504C86.7764 21.0869 89.5074 20.8552 92.9171 20.8552H95.6481V25.0262H92.9171C91.626 25.0262 90.5502 25.1255 89.6895 25.3242C88.8619 25.4897 88.2495 25.7711 87.8523 26.1683C87.455 26.5324 87.2564 27.0124 87.2564 27.6083C87.2564 28.3697 87.5212 28.9986 88.0509 29.4952C88.6137 29.9917 89.4081 30.24 90.4343 30.24C91.2619 30.24 91.9902 30.0579 92.6191 29.6938C93.2812 29.3297 93.8109 28.8331 94.2081 28.2041C94.6054 27.5421 94.804 26.7807 94.804 25.92V20.16C94.804 18.9683 94.4895 18.1242 93.8605 17.6276C93.2647 17.1311 92.2219 16.8828 90.7323 16.8828C89.9378 16.8828 89.044 16.9821 88.0509 17.1807C87.0578 17.3462 85.9488 17.6607 84.724 18.1242C83.8302 18.4552 83.0688 18.5048 82.4399 18.2731C81.8109 18.0414 81.3143 17.6442 80.9502 17.0814C80.6192 16.5187 80.4536 15.9062 80.4536 15.2442C80.4867 14.5821 80.7019 13.9531 81.0992 13.3573C81.5295 12.7614 82.175 12.298 83.0357 11.9669C84.6247 11.3711 86.0812 10.9738 87.4054 10.7752C88.7626 10.5766 90.004 10.4773 91.1295 10.4773C93.844 10.4773 96.0785 10.8745 97.8329 11.669C99.6205 12.4304 100.945 13.6221 101.805 15.2442C102.699 16.8331 103.146 18.8855 103.146 21.4014V31.4317C103.146 32.8883 102.798 33.9972 102.103 34.7586C101.408 35.52 100.398 35.9007 99.0743 35.9007C97.7171 35.9007 96.6743 35.52 95.946 34.7586C95.2509 33.9972 94.9033 32.8883 94.9033 31.4317V30.1407L95.2012 30.8359C95.0357 31.8952 94.655 32.8055 94.0592 33.5669C93.4633 34.3283 92.6854 34.9241 91.7254 35.3545C90.7654 35.7848 89.673 36 88.4481 36ZM119.663 35.9006C118.206 35.9006 117.081 35.5199 116.286 34.7586C115.525 33.9972 115.144 32.8882 115.144 31.4317V14.9958C115.144 13.5724 115.508 12.48 116.236 11.7186C116.998 10.9572 118.074 10.5765 119.464 10.5765C120.854 10.5765 121.914 10.9572 122.642 11.7186C123.37 12.48 123.734 13.5724 123.734 14.9958V17.0317H123.238C123.569 15.0455 124.413 13.4731 125.77 12.3145C127.161 11.1558 128.882 10.5434 130.934 10.4772C131.894 10.4442 132.606 10.6924 133.069 11.222C133.566 11.7186 133.831 12.662 133.864 14.0524C133.864 15.2441 133.616 16.1876 133.119 16.8827C132.623 17.5779 131.679 17.9917 130.289 18.1241L129.147 18.2235C127.392 18.389 126.118 18.8855 125.323 19.7131C124.529 20.5076 124.132 21.6993 124.132 23.2883V31.4317C124.132 32.8883 123.751 33.9972 122.99 34.7586C122.228 35.52 121.119 35.9006 119.663 35.9006ZM155.581 36C152.866 36 150.499 35.4869 148.48 34.4607C146.461 33.4345 144.888 31.9614 143.763 30.0414C142.637 28.1214 142.074 25.8538 142.074 23.2386C142.074 21.2524 142.389 19.4814 143.018 17.9256C143.647 16.3366 144.557 14.9959 145.749 13.9035C146.941 12.778 148.364 11.9338 150.019 11.3711C151.674 10.7752 153.528 10.4773 155.581 10.4773C158.295 10.4773 160.662 10.9904 162.681 12.0166C164.701 13.0428 166.256 14.5159 167.349 16.4359C168.474 18.3228 169.037 20.5904 169.037 23.2386C169.037 25.1917 168.723 26.9628 168.094 28.5517C167.465 30.1407 166.554 31.4979 165.363 32.6235C164.204 33.7159 162.781 34.56 161.092 35.1559C159.437 35.7186 157.6 36 155.581 36ZM155.581 29.4952C156.474 29.4952 157.269 29.28 157.964 28.8497C158.659 28.3862 159.189 27.7076 159.553 26.8138C159.95 25.8869 160.149 24.6952 160.149 23.2386C160.149 21.0207 159.719 19.4317 158.858 18.4717C157.997 17.4787 156.905 16.9821 155.581 16.9821C154.687 16.9821 153.892 17.1973 153.197 17.6276C152.502 18.058 151.956 18.7366 151.559 19.6635C151.161 20.5573 150.963 21.749 150.963 23.2386C150.963 25.4235 151.393 27.0124 152.254 28.0055C153.114 28.9986 154.223 29.4952 155.581 29.4952Z" fill="url(#paint0_linear_315_37)"/>
<defs>
<linearGradient id="paint0_linear_315_37" x1="89.6989" y1="-18.2088" x2="87.979" y2="41.0419" gradientUnits="userSpaceOnUse">
<stop stop-color="#EDDD53"/>
<stop offset="1" stop-color="#57C785"/>
</linearGradient>
</defs>
</svg>
