<svg width="66" height="70" viewBox="0 0 66 70" fill="none" xmlns="http://www.w3.org/2000/svg">
<g clip-path="url(#clip0_315_32)">
<path d="M56.0033 24.5891C52.405 25.7628 51.6909 32.889 47.7028 33.2123C44.4297 33.4777 40.4618 31.688 37.4526 32.2952C34.4701 32.9039 32.9542 35.1526 35.2104 34.6962C39.9371 33.7421 44.5422 36.8004 45.4961 41.5271V41.5283C46.4494 46.255 43.3906 50.8595 38.664 51.8128C31.966 53.164 31.1007 35.2913 33.8078 35.4376C40.9031 36.2944 30.2437 52.84 36.1956 54.7114C37.317 55.6785 40.6289 54.9686 43.523 53.6612C46.4541 52.3372 48.1746 53.1926 46.0556 55.6048C44.7016 57.1462 42.7096 58.1641 39.9963 58.758C37.1939 59.4047 34.0098 56.7759 30.026 56.4406C27.134 56.1972 26.3612 58.9735 30.2415 62.9616C32.226 65.0011 36.5158 68.3172 38.9729 69.4287C41.2364 70.4527 45.332 70.3982 48.6734 66.7335C52.0148 63.0687 54.7126 58.0112 55.0328 53.3686C55.3561 48.6799 54.3858 44.4219 57.4038 41.5117C60.7608 38.2745 63.2044 38.4501 65.1112 36.2843C67.4518 33.6258 58.4986 23.7752 56.0033 24.5891Z" fill="url(#paint0_linear_315_32)"/>
<path d="M9.49351 45.4109C13.0918 44.2372 13.8059 37.111 17.794 36.7877C21.0671 36.5223 25.0351 38.312 28.0442 37.7048C31.0267 37.0961 32.5426 34.8474 30.2864 35.3038C25.5598 36.2579 20.9546 33.1996 20.0007 28.4729V28.4717C19.0474 23.745 22.1062 19.1405 26.8328 18.1872C33.5309 16.836 34.3962 34.7087 31.689 34.5624C24.5938 33.7056 35.2531 17.16 29.3012 15.2886C28.1798 14.3215 24.868 15.0314 21.9738 16.3388C19.0427 17.6628 17.3222 16.8074 19.4413 14.3952C20.7952 12.8538 22.7872 11.8359 25.5005 11.242C28.303 10.5953 31.487 13.2241 35.4708 13.5594C38.3629 13.8028 39.1356 11.0265 35.2553 7.03842C33.2709 4.99887 28.981 1.68282 26.5239 0.571277C24.2604 -0.452706 20.1648 -0.398239 16.8234 3.26652C13.482 6.93127 10.7842 11.9888 10.4641 16.6314C10.1407 21.3201 11.1111 25.5781 8.09302 28.4883C4.73598 31.7255 2.29247 31.5499 0.385667 33.7157C-1.95497 36.3742 6.9982 46.2248 9.49351 45.4109Z" fill="url(#paint1_linear_315_32)"/>
</g>
<defs>
<linearGradient id="paint0_linear_315_32" x1="27.291" y1="26.7971" x2="62.0605" y2="49.2133" gradientUnits="userSpaceOnUse">
<stop stop-color="#EDDD53"/>
<stop offset="1" stop-color="#278B70"/>
</linearGradient>
<linearGradient id="paint1_linear_315_32" x1="51.6556" y1="36.1792" x2="11.3567" y2="11.073" gradientUnits="userSpaceOnUse">
<stop stop-color="#EDDD53"/>
<stop offset="1" stop-color="#57C785"/>
</linearGradient>
<clipPath id="clip0_315_32">
<rect width="65.4983" height="70" fill="white"/>
</clipPath>
</defs>
</svg>
