<svg width="24" height="24" viewBox="0 0 24 24" fill="none" xmlns="http://www.w3.org/2000/svg">
<path d="M3 15C2.175 15 1.46875 14.7063 0.88125 14.1188C0.29375 13.5313 0 12.825 0 12C0 11.175 0.29375 10.4688 0.88125 9.88125C1.46875 9.29375 2.175 9 3 9C3.825 9 4.53125 9.29375 5.11875 9.88125C5.70625 10.4688 6 11.175 6 12C6 12.825 5.70625 13.5313 5.11875 14.1188C4.53125 14.7063 3.825 15 3 15ZM12 15C11.175 15 10.4688 14.7063 9.88125 14.1188C9.29375 13.5313 9 12.825 9 12C9 11.175 9.29375 10.4688 9.88125 9.88125C10.4688 9.29375 11.175 9 12 9C12.825 9 13.5313 9.29375 14.1188 9.88125C14.7063 10.4688 15 11.175 15 12C15 12.825 14.7063 13.5313 14.1188 14.1188C13.5313 14.7063 12.825 15 12 15ZM21 15C20.175 15 19.4688 14.7063 18.8813 14.1188C18.2938 13.5313 18 12.825 18 12C18 11.175 18.2938 10.4688 18.8813 9.88125C19.4688 9.29375 20.175 9 21 9C21.825 9 22.5313 9.29375 23.1188 9.88125C23.7063 10.4688 24 11.175 24 12C24 12.825 23.7063 13.5313 23.1188 14.1188C22.5313 14.7063 21.825 15 21 15Z" fill="#278B70"/>
</svg>
