<svg width="24" height="24" viewBox="0 0 24 24" fill="none" xmlns="http://www.w3.org/2000/svg">
<path d="M5 22C2.23858 22 0 19.7614 0 17V8C0 5.23858 2.23858 3 5 3H19C21.7614 3 24 5.23858 24 8V17C24 19.7614 21.7614 22 19 22H5ZM11.3688 14.2971C11.7556 14.5363 12.2444 14.5363 12.6312 14.2971L21.1213 9.04607C21.4189 8.86202 21.6 8.53704 21.6 8.18714V8.18714C21.6 7.39602 20.7316 6.91207 20.0588 7.32821L12.6312 11.9221C12.2444 12.1613 11.7556 12.1613 11.3688 11.9221L3.94118 7.32821C3.26836 6.91207 2.4 7.39602 2.4 8.18714V8.18714C2.4 8.53704 2.58111 8.86202 2.8787 9.04607L11.3688 14.2971Z" fill="#278B70"/>
</svg>
