<svg width="24" height="24" viewBox="0 0 24 24" fill="none" xmlns="http://www.w3.org/2000/svg">
<path fill-rule="evenodd" clip-rule="evenodd" d="M3.34165 6.85537C5.61087 -2.29174 17.6802 -2.28172 19.9383 6.86503C21.263 12.2309 18.5262 16.7736 15.3354 19.5833C13.0202 21.6322 10.2599 21.6323 7.93316 19.5833C4.75397 16.7737 2.01719 12.221 3.34165 6.85537ZM11.7482 2.96979C11.2114 2.96979 10.7762 3.41303 10.7762 3.9598V6.92981C10.7762 7.47657 10.341 7.91981 9.80413 7.91981H6.88804C6.3512 7.91981 5.91601 8.36305 5.91601 8.90982C5.91601 9.45658 6.3512 9.89982 6.88804 9.89982H9.80413C10.341 9.89982 10.7762 10.3431 10.7762 10.8898V13.8598C10.7762 14.4066 11.2114 14.8498 11.7482 14.8498C12.285 14.8498 12.7202 14.4066 12.7202 13.8598V10.8898C12.7202 10.3431 13.1554 9.89982 13.6923 9.89982H16.6083C17.1452 9.89982 17.5804 9.45658 17.5804 8.90982C17.5804 8.36305 17.1452 7.91981 16.6083 7.91981H13.6923C13.1554 7.91981 12.7202 7.47657 12.7202 6.92981V3.9598C12.7202 3.41303 12.285 2.96979 11.7482 2.96979Z" fill="#278B70"/>
<path d="M18.36 23.04C18.36 23.5702 15.3514 24 11.64 24C7.92866 24 4.92001 23.5702 4.92001 23.04C4.92001 22.5098 7.92866 22.08 11.64 22.08C15.3514 22.08 18.36 22.5098 18.36 23.04Z" fill="#278B70"/>
</svg>
