<svg width="24" height="24" viewBox="0 0 24 24" fill="none" xmlns="http://www.w3.org/2000/svg">
<path d="M19.2376 19.2399C19.706 18.7702 20.4666 18.7697 20.9356 19.2387L23.6485 21.9516C24.1172 22.4203 24.1172 23.1799 23.6485 23.6485C23.1799 24.1172 22.4203 24.1172 21.9516 23.6485L19.2387 20.9356C18.7706 20.4675 18.7701 19.7087 19.2376 19.2399Z" fill="#278B70"/>
<path fill-rule="evenodd" clip-rule="evenodd" d="M10.8 0C16.7647 0 21.6001 4.83534 21.6001 10.8C21.6001 10.9703 21.5956 11.1397 21.5878 11.3081C21.5863 11.3389 21.5848 11.3698 21.5831 11.4006C21.5795 11.4658 21.5749 11.5309 21.5702 11.5957C21.5682 11.6227 21.5665 11.6497 21.5643 11.6766C21.5612 11.7157 21.5579 11.7548 21.5544 11.7938C21.5493 11.8492 21.5439 11.9045 21.538 11.9596C21.537 11.9692 21.5361 11.9788 21.535 11.9883C21.5273 12.0592 21.519 12.1299 21.5098 12.2004C21.5067 12.2247 21.5026 12.2489 21.4993 12.2731C21.4893 12.3465 21.4791 12.4198 21.4677 12.4928C21.457 12.5602 21.4461 12.6274 21.4343 12.6944C21.4285 12.7271 21.4216 12.7596 21.4155 12.7922C21.4075 12.8351 21.4 12.8779 21.3915 12.9206C21.3829 12.9636 21.3742 13.0066 21.3651 13.0495C21.3565 13.09 21.3472 13.1304 21.3382 13.1708C21.3283 13.2148 21.3187 13.2588 21.3083 13.3026C21.3009 13.3336 21.2925 13.3643 21.2848 13.3952C20.7095 15.7274 19.3771 17.7607 17.5624 19.22L17.543 19.2399L17.5407 19.2376C16.3414 20.197 14.9333 20.9054 13.3952 21.2848C13.3649 21.2923 13.3347 21.2999 13.3043 21.3071C13.2599 21.3177 13.2154 21.3282 13.1708 21.3382C13.1359 21.346 13.1009 21.3535 13.0659 21.361C13.0175 21.3713 12.9691 21.3818 12.9206 21.3915C12.8779 21.4 12.8351 21.4075 12.7922 21.4155C12.7596 21.4216 12.7271 21.4285 12.6944 21.4343C12.6543 21.4414 12.614 21.4475 12.5737 21.4542C12.4739 21.4707 12.3737 21.4856 12.2731 21.4993C12.2489 21.5026 12.2247 21.5067 12.2004 21.5098C12.1516 21.5162 12.1025 21.5212 12.0534 21.5268C12.0221 21.5305 11.9909 21.5346 11.9596 21.538C11.9115 21.5431 11.8632 21.5475 11.8149 21.552C11.7689 21.5563 11.7228 21.5606 11.6766 21.5643C11.6497 21.5665 11.6227 21.5682 11.5957 21.5702C11.5351 21.5746 11.4744 21.5785 11.4135 21.5819C11.3784 21.5839 11.3433 21.5861 11.3081 21.5878C11.2533 21.5903 11.1984 21.5919 11.1434 21.5936C11.1184 21.5944 11.0934 21.596 11.0684 21.5966C10.9792 21.5987 10.8898 21.6001 10.8 21.6001C4.83534 21.6001 0 16.7647 0 10.8C0 4.83534 4.83534 0 10.8 0ZM10.8 2.99767C6.49104 2.99767 2.99767 6.49104 2.99767 10.8C2.99767 15.109 6.49104 18.6024 10.8 18.6024C15.109 18.6024 18.6024 15.109 18.6024 10.8C18.6024 6.49104 15.109 2.99767 10.8 2.99767Z" fill="#278B70"/>
</svg>
