<svg width="24" height="24" viewBox="0 0 24 24" fill="none" xmlns="http://www.w3.org/2000/svg">
<path d="M10.2326 1.25578L4.43023 3.32404C3.09302 3.7971 2 5.29329 2 6.63545V14.8095C2 16.1076 2.90698 17.8129 4.01163 18.5939L9.01163 22.1254C10.6512 23.2915 13.3488 23.2915 14.9884 22.1254L19.9884 18.5939C21.093 17.8129 22 16.1076 22 14.8095V6.63545C22 5.28229 20.907 3.7861 19.5698 3.31304L13.7674 1.25578C12.7791 0.914739 11.1977 0.914739 10.2326 1.25578Z" stroke="#278B70" stroke-width="1.5" stroke-linecap="round" stroke-linejoin="round"/>
<path d="M12 12C13.1046 12 14 11.1046 14 10C14 8.89543 13.1046 8 12 8C10.8954 8 10 8.89543 10 10C10 11.1046 10.8954 12 12 12Z" stroke="#278B70" stroke-width="1.5" stroke-miterlimit="10" stroke-linecap="round" stroke-linejoin="round"/>
<path d="M11.25 15.3621C11.25 15.7763 11.5858 16.1121 12 16.1121C12.4142 16.1121 12.75 15.7763 12.75 15.3621H12H11.25ZM12 11.8933H11.25V15.3621H12H12.75V11.8933H12Z" fill="#278B70"/>
</svg>
