<svg width="164" height="250" viewBox="0 0 164 250" fill="none" xmlns="http://www.w3.org/2000/svg">
<ellipse cx="50.1455" cy="25.9643" rx="25.9643" ry="25.9643" fill="#EDDD53"/>
<path d="M50.1455 0C58.0444 0 65.1183 3.52788 69.8804 9.09307C69.8799 9.17621 69.8784 9.26095 69.8784 9.34714C69.8784 11.9949 69.537 13.4377 68.8398 14.7996C67.8092 16.8129 66.098 17.3865 62.868 17.6557C56.6367 18.1749 53.2612 14.0207 47.2895 18.6943C41.3178 23.3678 38.7438 27.4949 41.5773 29.8589C46.1692 33.6898 49.2849 37.3248 46.7702 39.985C45.1258 41.7245 43.1351 43.1007 39.2406 43.3603C36.3028 43.5562 33.7015 43.3603 31.9706 42.8411C30.8333 42.4999 30.2944 42.3563 29.9162 42.2391C26.3296 37.7867 24.1813 32.1267 24.1813 25.9643C24.1813 11.6246 35.8059 0 50.1455 0Z" fill="#278B70"/>
<path d="M14.0187 57.396C15.302 53.546 20.1423 52.3207 23.1029 55.0963L29.1765 60.7903C30.7599 62.2747 32.7427 63.2637 34.8809 63.6356L44.7347 65.3493C49.5957 66.1947 53.3197 70.14 53.8834 75.0417L72.8826 240.252C73.1251 242.361 70.2101 243.158 69.346 241.219L41.7828 179.388C41.1086 177.876 38.9411 177.938 38.3544 179.486L12.0888 248.798C11.3106 250.852 8.23963 250.088 8.51429 247.909L20.2759 154.6C20.4061 153.567 20.2438 152.518 19.8074 151.573L2.21997 113.467C-0.350586 107.897 -0.701719 101.557 1.23806 95.738L14.0187 57.396Z" fill="#278B70"/>
<circle cx="99.2977" cy="238.33" r="2.78208" fill="#278B70"/>
<circle cx="120.629" cy="217.002" r="7.41889" fill="#278B70"/>
<circle cx="120.63" cy="152.087" r="18.5472" fill="#278B70"/>
<circle cx="135.468" cy="192.891" r="11.1283" fill="#278B70"/>
<circle cx="135.468" cy="192.891" r="9.16618" fill="#EDDD53"/>
<circle cx="120.629" cy="152.087" r="4.45133" fill="#EDDD53"/>
<circle cx="120.629" cy="217.002" r="3.70944" fill="#EDDD53"/>
<circle cx="97.4458" cy="180.835" r="2.78208" fill="#278B70"/>
<circle cx="160.506" cy="151.16" r="2.78208" fill="#278B70"/>
<circle cx="148.45" cy="153.942" r="1.85472" fill="#278B70"/>
<circle cx="152.159" cy="168.78" r="1.85472" fill="#278B70"/>
<circle cx="155.868" cy="179.908" r="5.56417" fill="#278B70"/>
<circle cx="139.178" cy="222.569" r="1.85472" fill="#278B70"/>
<circle cx="117.866" cy="225.373" r="0.92726" transform="rotate(-1.30866 117.866 225.373)" fill="#278B70"/>
<circle cx="108.618" cy="230.955" r="0.92726" transform="rotate(-2.61731 108.618 230.955)" fill="#278B70"/>
<circle cx="106.78" cy="216.134" r="0.92726" transform="rotate(-3.92597 106.78 216.134)" fill="#278B70"/>
<circle cx="132.75" cy="208.719" r="0.92726" transform="rotate(-3.92597 132.75 208.719)" fill="#EDDD53"/>
<circle cx="121.639" cy="201.323" r="0.92726" transform="rotate(-5.23463 121.639 201.323)" fill="#278B70"/>
<circle cx="106.819" cy="199.479" r="0.92726" transform="rotate(-6.54328 106.819 199.479)" fill="#278B70"/>
<circle cx="94.664" cy="215.147" r="3.70944" fill="#EDDD53"/>
<circle cx="94.6633" cy="215.148" r="0.830915" fill="#278B70"/>
<circle cx="98.3735" cy="207.729" r="7.41889" fill="#278B70"/>
<circle cx="98.3735" cy="207.729" r="6.74836" fill="#EDDD53"/>
</svg>
