<svg width="1021" height="764" viewBox="0 0 1021 764" fill="none" xmlns="http://www.w3.org/2000/svg">
<path opacity="0.2" d="M524.007 413.526V393.264L490.383 376.368V356.106L456.758 339.194V318.949L423.152 302.053L277.86 371.015L315.598 389.881V410.143L349.223 427.022V447.301L382.848 464.18V484.458L530.14 669.688C675.997 648.26 787.344 583.633 834.328 500.106C839.762 490.451 844.599 480.726 848.838 470.929L524.007 413.526Z" fill="#8ADEC7"/>
<path opacity="0.15" d="M316.9 18.5183C218.593 67.7772 138.89 199.791 138.89 313.448C138.89 380.981 167.042 426.842 210.592 442.604L228.574 433.574L405.377 344.76L423.812 335.499C467.041 276.306 494.986 202.5 494.986 135.18C494.911 21.5559 415.227 -30.6913 316.9 18.5183Z" fill="#8ADEC7"/>
<path opacity="0.15" d="M316.9 51.3901C234.291 92.7675 167.325 203.699 167.325 299.211C167.325 394.724 234.291 438.63 316.9 397.286C399.509 355.941 466.494 244.961 466.494 149.448C466.494 53.9351 399.528 10.0291 316.9 51.3901Z" fill="#8ADEC7"/>
<path opacity="0.15" d="M316.901 74.5587C245.613 110.386 187.817 206.474 187.817 289.18C187.817 371.885 245.613 409.93 316.901 374.118C388.188 338.307 445.984 242.203 445.984 159.481C445.984 76.7589 388.207 38.7147 316.901 74.5587Z" fill="#8ADEC7"/>
<path d="M240.783 293.104C240.783 221.448 290.861 138.201 352.62 107.151C379.848 93.4903 404.774 92.226 424.152 101.224L399.038 88.5808C379.414 78.729 353.752 79.55 325.75 93.6381C263.954 124.688 213.895 207.935 213.895 279.59C213.895 318.817 228.895 346.435 252.614 358.322C256.671 360.342 271.747 367.944 277.898 371.031C255.048 358.7 240.783 331.443 240.783 293.104Z" fill="#8ADEC7"/>
<path opacity="0.3" d="M240.783 293.104C240.783 221.448 290.861 138.201 352.62 107.151C379.848 93.4903 404.774 92.226 424.152 101.224L399.038 88.5808C379.414 78.729 353.752 79.55 325.75 93.6381C263.954 124.688 213.895 207.935 213.895 279.59C213.895 318.817 228.895 346.435 252.614 358.322C256.671 360.342 271.747 367.944 277.898 371.031C255.048 358.7 240.783 331.443 240.783 293.104Z" fill="#FAFAFA"/>
<path d="M396.565 122.176C406.32 133.505 411.547 151.534 410.377 174.981C407.566 232.45 367.393 300.821 320.674 327.569C306.484 335.697 293.295 339.063 281.936 338.159C296.125 354.579 319.9 356.927 347.562 341.082C394.301 314.335 434.473 246.013 437.284 188.478C439.209 148.447 422.567 124.195 396.565 122.176Z" fill="#8ADEC7"/>
<path opacity="0.15" d="M396.565 122.176C406.32 133.505 411.547 151.534 410.377 174.981C407.566 232.45 367.393 300.821 320.674 327.569C306.484 335.697 293.295 339.063 281.936 338.159C296.125 354.579 319.9 356.927 347.562 341.082C394.301 314.335 434.473 246.013 437.284 188.478C439.209 148.447 422.567 124.195 396.565 122.176Z" fill="black"/>
<path d="M269.274 139.777L296.163 153.291L298.314 150.779L271.425 137.232C270.69 138.103 269.991 138.874 269.274 139.777Z" fill="#8ADEC7"/>
<path d="M256.935 218.033L229.952 204.553C229.574 205.456 229.216 206.392 228.857 207.311L255.746 220.825C256.123 219.872 256.463 218.936 256.935 218.033Z" fill="#8ADEC7"/>
<path d="M379.583 82.6201L406.49 96.1827C407.585 96.3469 408.679 96.5111 409.755 96.7082L382.847 83.1948C381.772 82.9485 380.677 82.7679 379.583 82.6201Z" fill="#8ADEC7"/>
<path d="M244.575 257.72C244.783 256.702 245.009 255.667 245.236 254.649L218.347 241.136C218.102 242.154 217.876 243.172 217.668 244.206L244.575 257.72Z" fill="#8ADEC7"/>
<path d="M295.71 113.506L322.598 127.019C323.523 126.248 324.485 125.476 325.391 124.737L298.446 111.224C297.559 111.963 296.559 112.734 295.71 113.506Z" fill="#8ADEC7"/>
<path d="M244.707 325.27C244.462 324.367 244.235 323.448 244.009 322.528L243.801 322.118L217.045 308.67C217.29 309.721 217.536 310.755 217.819 311.773L244.707 325.27Z" fill="#8ADEC7"/>
<path d="M356.129 83.2275C354.997 83.4246 353.827 83.6873 352.676 83.9336L379.583 97.4469C380.753 97.1842 381.923 96.9544 383.074 96.7573L356.129 83.2275Z" fill="#8ADEC7"/>
<path d="M354.299 106.364L327.41 92.8994C326.844 93.1785 326.297 93.4084 325.75 93.6875L324.108 94.5578L350.997 108.071L352.62 107.201L354.299 106.364Z" fill="#8ADEC7"/>
<path d="M246.48 171.714L273.369 185.227L274.954 182.666L248.065 169.152C247.499 169.973 246.99 170.827 246.48 171.714Z" fill="#8ADEC7"/>
<path d="M256.123 351.049C255.52 350.146 254.954 349.242 254.369 348.307L227.499 334.81C228.065 335.745 228.669 336.649 229.273 337.552L256.123 351.049Z" fill="#8ADEC7"/>
<path d="M213.894 279.853L240.782 293.383V293.104C240.782 292.102 240.782 291.068 240.782 290.05L213.875 276.536C213.875 277.554 213.875 278.589 213.875 279.59L213.894 279.853Z" fill="#8ADEC7"/>
<path d="M352.619 107.151C290.861 138.201 240.782 221.448 240.782 293.104C240.782 364.759 290.861 397.713 352.619 366.68C414.378 335.647 464.494 252.399 464.494 180.728C464.494 109.056 414.396 76.1183 352.619 107.151ZM437.228 188.478C434.416 245.946 394.244 314.318 347.506 341.065C300.767 367.813 265.199 342.871 268.01 285.354C270.822 227.836 311.032 159.514 357.733 132.766C404.434 106.018 440.058 130.96 437.228 188.478Z" fill="#8ADEC7"/>
<g opacity="0.15">
<path d="M329.731 154.391C330.637 153.521 331.524 152.634 332.449 151.78L325.373 124.737C324.429 125.476 323.486 126.231 322.58 127.003L329.731 154.391Z" fill="black"/>
<path d="M350.978 108.006V137.003C352.072 136.264 353.166 135.542 354.28 134.852V106.348L352.619 107.152L350.978 108.006Z" fill="black"/>
<path d="M373.715 125.477C374.922 125.066 376.13 124.688 377.319 124.36L382.98 96.7422C381.829 96.9392 380.659 97.1691 379.489 97.4154L373.715 125.477Z" fill="black"/>
<path d="M282.54 225.259L283.729 222.533L256.935 218.018C256.557 218.937 256.18 219.857 255.821 220.776L282.54 225.259Z" fill="black"/>
<path d="M295.238 199.627L296.748 197L274.935 182.649L273.369 185.227L295.238 199.627Z" fill="black"/>
<path d="M459.909 146.312L436.19 165.671C436.379 166.821 436.549 167.986 436.7 169.201L460.871 149.498C460.513 148.447 460.23 147.363 459.909 146.312Z" fill="black"/>
<path d="M268.822 275.979L240.82 290.034C240.82 291.068 240.82 292.086 240.82 293.104V293.383L268.482 279.492C268.539 278.327 268.69 277.144 268.822 275.979Z" fill="black"/>
<path d="M273.351 252.17C273.634 251.135 273.936 250.101 274.219 249.05L245.217 254.616C244.991 255.634 244.764 256.669 244.557 257.687L273.351 252.17Z" fill="black"/>
<path d="M395.999 122.159C397.15 122.241 398.263 122.356 399.358 122.521L409.773 96.6268C408.679 96.4298 407.585 96.2492 406.471 96.085L395.999 122.159Z" fill="black"/>
<path d="M428.907 143.702C429.436 144.67 429.945 145.688 430.436 146.723L449.871 123.949C449.286 123.029 448.663 122.143 447.984 121.272L428.907 143.702Z" fill="black"/>
<path d="M415.17 128.448C416.057 129.039 416.925 129.663 417.774 130.336L432.416 105.937C431.529 105.329 430.643 104.755 429.718 104.196L415.17 128.448Z" fill="black"/>
<path d="M311.032 175.721L313.07 173.044L298.296 150.763L296.145 153.291L311.032 175.721Z" fill="black"/>
<path d="M376.093 318.883C375.206 319.786 374.206 320.656 373.395 321.51L380.47 348.635C381.414 347.896 382.357 347.092 383.263 346.32L376.093 318.883Z" fill="black"/>
<path d="M411.17 272.234C410.679 273.121 410.17 273.991 409.66 274.862L431.529 289.245L433.058 286.634L411.17 272.234Z" fill="black"/>
<path d="M395.207 296.831L393.169 299.524L407.981 321.855C408.698 321.017 409.434 320.213 410.132 319.342L395.207 296.831Z" fill="black"/>
<path d="M423.775 245.979C423.397 246.899 423.039 247.818 422.643 248.722L449.437 253.221C449.814 252.301 450.173 251.382 450.531 250.462L423.775 245.979Z" fill="black"/>
<path d="M432.624 218.739C432.379 219.773 432.134 220.808 431.851 221.826L460.72 216.325C460.928 215.291 461.116 214.273 461.324 213.255L432.624 218.739Z" fill="black"/>
<path d="M464.494 177.707L437.021 191.417C437.021 192.567 436.851 193.716 436.757 194.882L464.494 181.007V180.728C464.494 179.71 464.494 178.709 464.494 177.707Z" fill="black"/>
<path d="M354.28 365.81V336.846C353.185 337.585 352.072 338.307 350.978 338.997V367.501L352.619 366.68C353.166 366.401 353.732 366.089 354.28 365.81Z" fill="black"/>
<path d="M275.445 328.422C274.935 327.421 274.445 326.386 273.973 325.303L254.368 348.29C254.934 349.226 255.538 350.146 256.142 351.032L275.445 328.422Z" fill="black"/>
<path d="M288.899 344.596C288.031 343.972 287.182 343.315 286.352 342.609L271.634 367.107C272.502 367.731 273.389 368.323 274.294 368.897L288.899 344.596Z" fill="black"/>
<path d="M330.901 348.603C329.693 348.997 328.505 349.341 327.316 349.67L321.655 377.205C322.825 377.008 323.995 376.795 325.165 376.549L330.901 348.603Z" fill="black"/>
<path d="M308.163 351.608C307.031 351.509 305.937 351.361 304.843 351.181L294.54 376.959C295.634 377.189 296.729 377.37 297.823 377.534L308.163 351.608Z" fill="black"/>
<path d="M268.765 305.715C268.614 304.532 268.482 303.317 268.369 302.086L243.839 322.003C244.103 323.103 244.367 324.187 244.65 325.287L268.765 305.715Z" fill="black"/>
</g>
<path d="M382.81 484.474L254.991 420.257V359.455L281.898 372.968L315.561 389.897V410.159L349.186 427.038V447.316L382.81 464.196V484.474Z" fill="#263238"/>
<path d="M281.936 373.002L423.152 302.053L456.757 318.949L315.56 389.898L281.936 373.002Z" fill="#455A64"/>
<path d="M315.561 389.897V410.159L456.758 339.21V318.948L315.561 389.897Z" fill="#37474F"/>
<path d="M315.561 410.159L456.758 339.21L490.382 356.106L349.185 427.039L315.561 410.159Z" fill="#455A64"/>
<path d="M349.186 427.038V447.317L490.383 376.367V356.105L349.186 427.038Z" fill="#37474F"/>
<path d="M349.186 447.316L490.383 376.367L524.007 393.263L382.81 464.196L349.186 447.316Z" fill="#455A64"/>
<path d="M382.81 464.196V484.475L524.007 413.525V393.264L382.81 464.196Z" fill="#37474F"/>
<path d="M423.246 181.565C420.434 239.034 380.243 307.405 333.524 334.169C316.164 344.103 300.352 346.911 287.445 343.545C274.237 333.052 266.689 312.955 268.01 285.386C270.841 227.918 311.032 159.546 357.733 132.799C375.111 122.848 390.961 120.057 403.849 123.44C417.132 133.948 424.605 153.98 423.246 181.565Z" fill="#8ADEC7"/>
<path opacity="0.9" d="M423.246 181.565C420.434 239.034 380.243 307.405 333.524 334.169C316.164 344.103 300.352 346.911 287.445 343.545C274.237 333.052 266.689 312.955 268.01 285.386C270.841 227.918 311.032 159.546 357.733 132.799C375.111 122.848 390.961 120.057 403.849 123.44C417.132 133.948 424.605 153.98 423.246 181.565Z" fill="#FAFAFA"/>
<path opacity="0.2" d="M333.316 304.712C318.73 306.181 305.234 312.152 295.276 321.542C289.896 326.566 285.51 332.331 282.294 338.602C283.847 340.369 285.57 342.017 287.445 343.528C290.223 344.234 293.085 344.664 295.974 344.809C296.729 343.167 297.295 341.443 297.955 339.784C301.219 332.062 307.034 325.353 314.669 320.5C322.304 315.647 331.418 312.867 340.864 312.511C347.336 312.364 353.751 313.382 360.186 313.825C362.733 311.378 365.224 308.899 367.733 306.206C356.336 305.697 344.581 303.727 333.316 304.712ZM330.523 220.627C343.732 222.121 358.148 222.762 369.696 216.883C382.772 210.217 388.98 196.999 395.282 185.029C401.15 173.913 409.17 162.173 421.982 157.871C419.321 142.322 412.944 130.615 403.83 123.39C397.614 121.833 391.061 121.591 384.715 122.684C378.323 129.054 373.666 136.597 371.092 144.752C368.073 153.947 367.016 163.717 362.167 172.271C357.228 180.873 348.846 187.606 338.599 191.203C330.523 193.994 321.749 194.668 313.164 195.817C307.175 196.586 301.255 197.717 295.446 199.2C290.964 206.946 286.97 214.899 283.483 223.024C285.8 221.993 288.21 221.131 290.691 220.446C303.503 217.015 317.315 219.149 330.523 220.627ZM344.034 163.158C348.26 156.804 349.694 149.399 352.015 142.322C352.846 139.678 353.902 137.1 354.883 134.523C351.864 136.373 348.87 138.387 345.902 140.565C341.637 149.579 337.486 158.627 329.618 165.424C325.607 168.843 320.819 171.495 315.56 173.207C314.567 173.496 313.543 173.7 312.504 173.815C310.579 176.278 308.692 178.795 306.843 181.368C311.1 181.071 315.318 180.444 319.447 179.496C329.671 176.827 338.421 170.999 344.053 163.109L344.034 163.158ZM423.284 173.125C419.593 174.789 416.251 176.982 413.396 179.611C406.377 186.31 402.603 194.996 398.301 203.272C392.301 215.061 384.47 227.064 371.432 233.172C362.752 237.227 352.563 238.245 342.807 238.475C324.221 238.919 305.352 236.833 287.181 240.298C283.265 241.042 279.436 242.103 275.747 243.467C274.489 247.397 273.388 251.31 272.445 255.207C276.676 253.258 281.152 251.743 285.785 250.691C312.636 244.78 342.392 257.752 368.111 249.049C386.98 242.629 398.471 226.325 407.736 210.66C411.509 204.273 415.566 197.525 422.076 193.288C422.579 189.381 422.932 185.506 423.133 181.663C423.378 178.626 423.416 175.818 423.359 173.076L423.284 173.125ZM356.299 268.835C341.769 269.295 327.259 268.113 312.73 267.932C305.285 267.58 297.823 268.244 290.615 269.902C284.306 271.759 278.371 274.469 273.029 277.932C271.388 278.95 269.803 280 268.237 281.068C268.124 282.529 268.01 283.974 267.935 285.403C267.123 302.068 269.558 315.976 274.52 326.714C277.728 324.292 280.58 321.534 283.011 318.504C292.993 306.764 302.616 293.777 317.749 287.488C333.995 280.739 353.147 283.153 370.809 280.066C378.535 278.693 385.957 276.248 392.791 272.825C395.584 268.271 398.219 263.63 400.697 258.901C399.943 259.295 399.169 259.673 398.395 260.051C385.621 266.142 370.884 268.326 356.374 268.786L356.299 268.835Z" fill="#8ADEC7"/>
<path d="M510.037 156.532C510.037 162.115 508.829 167.074 500.979 168.272C509.018 168.568 509.584 173.198 510.037 179.667C510.301 173.247 510.999 168.568 518.282 168.272C510.773 167.189 510.037 162.115 510.037 156.532Z" fill="#92E3A9"/>
<path d="M326.893 453.743C326.893 459.326 325.685 464.285 317.836 465.483C325.874 465.779 326.44 470.409 326.893 476.878C327.157 470.442 327.855 465.779 335.139 465.483C327.591 464.383 326.893 459.326 326.893 453.743Z" fill="#92E3A9"/>
<path d="M267.889 281.731C267.889 284.178 267.361 286.329 263.927 286.854C267.436 286.986 267.701 289.038 267.889 291.78C268.002 288.973 268.304 286.854 271.493 286.854C268.191 286.378 267.889 284.178 267.889 281.731Z" fill="#92E3A9"/>
<path d="M252.455 291.337C252.455 296.903 251.228 301.862 243.397 303.061C251.436 303.356 252.002 307.986 252.455 314.472C252.7 308.036 253.398 303.372 260.7 303.061C253.153 302.059 252.455 296.903 252.455 291.337Z" fill="#E0E0E0"/>
<path d="M245.096 263.357C245.096 266.231 244.473 268.759 240.454 269.383C244.568 269.531 244.869 271.928 245.096 275.229C245.228 271.945 245.586 269.531 249.341 269.383C245.454 268.825 245.096 266.231 245.096 263.357Z" fill="#E0E0E0"/>
<path d="M488.242 139.751C488.242 143.035 488.148 146.155 482.732 146.894C488.393 146.894 488.016 149.964 488.299 153.905C488.45 149.964 488.846 147.14 493.318 146.959C488.695 146.286 488.827 144.431 488.242 139.751Z" fill="#E0E0E0"/>
<path d="M535.302 291.715C534.906 297.872 534.34 300.532 527.943 301.271C534.453 301.583 535 305.343 535.378 310.581C535.585 305.343 536.114 301.534 542.057 301.271C535.944 300.417 535.793 297.954 535.302 291.715Z" fill="#E0E0E0"/>
<path d="M300.892 453.793C300.665 457.389 300.344 458.932 296.608 459.376C300.382 459.556 300.722 461.724 300.948 464.778C301.062 461.724 301.363 459.507 304.835 459.376C301.326 458.85 301.175 457.438 300.892 453.793Z" fill="#E0E0E0"/>
<path d="M521.942 150.817C521.942 152.804 521.942 154.709 518.603 155.152C522.074 155.152 521.81 157.008 521.98 159.388C522.074 157.008 522.301 155.3 524.999 155.185C522.207 154.775 522.282 153.658 521.942 150.817Z" fill="#E0E0E0"/>
<path d="M529.057 309.612C529.057 311.583 529.057 313.487 525.717 313.931C529.17 313.931 528.906 315.803 529.075 318.183C529.17 315.803 529.415 314.078 532.113 313.98C529.321 313.553 529.396 312.436 529.057 309.612Z" fill="#E0E0E0"/>
<path d="M318.308 445.961C318.308 447.931 318.308 449.836 314.968 450.279C318.44 450.279 318.176 452.135 318.345 454.516C318.44 452.135 318.685 450.427 321.383 450.312C318.628 449.918 318.704 448.785 318.308 445.961Z" fill="#E0E0E0"/>
<path d="M792.906 402.734L852.325 372.883L942.028 417.939L985.069 396.314L895.384 351.259L924.518 336.612L877.345 312.886L848.211 327.532L796.208 301.441L753.149 323.082L805.096 349.239L694.315 404.803L728.978 422.208L1008.58 487.525L1014.01 484.799C1016.68 475.473 1018.89 465.955 1020.64 456.246L792.906 402.734Z" fill="#263238"/>
<path d="M798.491 173.697L796.265 174.814V111.729L769.357 98.2161L736.072 114.931L763.527 25.1159L736.638 11.6025L690.353 34.8527L615.556 278.224V313.116L642.444 326.629L726.392 284.431V309.569L753.3 323.083L796.208 301.442V249.293L825.323 234.663V187.21L798.491 173.697ZM726.392 209.968L703.618 221.462L726.392 146.884V209.968Z" fill="#8ADEC7"/>
<path opacity="0.3" d="M798.491 173.697L796.265 174.814V111.729L769.357 98.2161L736.072 114.931L763.527 25.1159L736.638 11.6025L690.353 34.8527L615.556 278.224V313.116L642.444 326.629L726.392 284.431V309.569L753.3 323.083L796.208 301.442V249.293L825.323 234.663V187.21L798.491 173.697ZM726.392 209.968L703.618 221.462L726.392 146.884V209.968Z" fill="black"/>
<path d="M796.246 201.841V111.73L753.206 133.354V223.482L693.768 253.333L763.527 25.1162L717.241 48.3664L642.444 291.738V326.564L753.206 270.934V323.083L796.246 301.442V249.293L825.38 234.663V187.211L796.246 201.841Z" fill="#8ADEC7"/>
<path opacity="0.3" d="M796.246 201.841V111.73L753.206 133.354V223.482L693.768 253.333L763.527 25.1162L717.241 48.3664L642.444 291.738V326.564L753.206 270.934V323.083L796.246 301.442V249.293L825.38 234.663V187.211L796.246 201.841Z" fill="#FAFAFA"/>
<path d="M763.527 25.1159L736.638 11.6025L690.353 34.8527L717.241 48.3661L763.527 25.1159Z" fill="#8ADEC7"/>
<path opacity="0.5" d="M763.527 25.1159L736.638 11.6025L690.353 34.8527L717.241 48.3661L763.527 25.1159Z" fill="#FAFAFA"/>
<path d="M769.358 98.2158L796.246 111.729L753.206 133.354L733.469 123.436L736.073 114.931L769.358 98.2158Z" fill="#8ADEC7"/>
<path opacity="0.5" d="M769.358 98.2158L796.246 111.729L753.206 133.354L733.469 123.436L736.073 114.931L769.358 98.2158Z" fill="#FAFAFA"/>
<path d="M753.205 223.481L726.298 209.968L703.523 221.412L693.768 253.332L753.205 223.481Z" fill="#8ADEC7"/>
<path opacity="0.5" d="M753.205 223.481L726.298 209.968L703.523 221.412L693.768 253.332L753.205 223.481Z" fill="#FAFAFA"/>
<path d="M825.38 187.211L798.492 173.697L796.246 174.814V201.841L825.38 187.211Z" fill="#8ADEC7"/>
<path opacity="0.5" d="M796.246 201.841L825.38 187.211L798.492 173.697L796.246 174.814V201.841Z" fill="#FAFAFA"/>
<path d="M642.444 291.738L615.556 278.224L690.353 34.8525L717.241 48.3659L642.444 291.738Z" fill="#8ADEC7"/>
<path opacity="0.15" d="M642.444 291.738L615.556 278.224L690.353 34.8525L717.241 48.3659L642.444 291.738Z" fill="black"/>
<path d="M308.962 612.188L261.732 588.462L232.617 603.092L180.709 577.018L137.649 598.642L189.558 624.717L78.7969 680.363L113.459 697.784L393.08 763.101L439.366 739.851L177.35 678.31L236.787 648.443L326.472 693.515L369.531 671.874L279.828 626.818L308.962 612.188Z" fill="#263238"/>
<path d="M182.935 449.257L180.709 450.39V387.24L153.802 373.727L120.517 390.524L147.971 300.709L121.083 287.195L74.7969 310.413L0 553.801V588.627L26.9639 602.14L110.837 560.007V585.129L137.725 598.643L180.784 577.018V524.853L209.899 510.223V462.77L182.935 449.257ZM110.761 485.528L87.9864 497.022L110.761 422.509V485.528Z" fill="#8ADEC7"/>
<path opacity="0.3" d="M182.935 449.257L180.709 450.39V387.24L153.802 373.727L120.517 390.524L147.971 300.709L121.083 287.195L74.7969 310.413L0 553.801V588.627L26.9639 602.14L110.837 560.007V585.129L137.725 598.643L180.784 577.018V524.853L209.899 510.223V462.77L182.935 449.257ZM110.761 485.528L87.9864 497.022L110.761 422.509V485.528Z" fill="black"/>
<path d="M180.709 477.417V387.289L137.65 408.914V499.041L78.2125 528.892L147.99 300.676L101.704 323.926L26.8887 567.298V602.14L137.65 546.494V598.643L180.709 577.018V524.853L209.824 510.223V462.77L180.709 477.417Z" fill="#8ADEC7"/>
<path opacity="0.3" d="M180.709 477.417V387.289L137.65 408.914V499.041L78.2125 528.892L147.99 300.676L101.704 323.926L26.8887 567.298V602.14L137.65 546.494V598.643L180.709 577.018V524.853L209.824 510.223V462.77L180.709 477.417Z" fill="#FAFAFA"/>
<path d="M147.99 300.675L121.083 287.162L74.7969 310.412L101.704 323.926L147.99 300.675Z" fill="#8ADEC7"/>
<path opacity="0.5" d="M147.99 300.675L121.083 287.162L74.7969 310.412L101.704 323.926L147.99 300.675Z" fill="#FAFAFA"/>
<path d="M153.802 373.775L180.709 387.289L137.65 408.913L117.913 399.012L120.517 390.507L153.802 373.775Z" fill="#8ADEC7"/>
<path opacity="0.5" d="M153.802 373.775L180.709 387.289L137.65 408.913L117.913 399.012L120.517 390.507L153.802 373.775Z" fill="#FAFAFA"/>
<path d="M137.649 499.041L110.761 485.527L87.9861 496.972L78.2119 528.892L137.649 499.041Z" fill="#8ADEC7"/>
<path opacity="0.5" d="M137.649 499.041L110.761 485.527L87.9861 496.972L78.2119 528.892L137.649 499.041Z" fill="#FAFAFA"/>
<path d="M209.824 462.77L182.936 449.257L180.709 450.39V477.417L209.824 462.77Z" fill="#8ADEC7"/>
<path opacity="0.5" d="M180.709 477.417L209.824 462.77L182.936 449.257L180.709 450.39V477.417Z" fill="#FAFAFA"/>
<path d="M26.8884 567.297L0 553.8L74.7969 310.412L101.704 323.925L26.8884 567.297Z" fill="#8ADEC7"/>
<path opacity="0.15" d="M26.8884 567.297L0 553.8L74.7969 310.412L101.704 323.925L26.8884 567.297Z" fill="black"/>
<path d="M636.743 575.643C629.218 572.655 621.256 570.583 613.081 569.485C608.079 568.764 602.972 568.803 597.986 569.6C594.435 570.232 590.996 571.27 587.759 572.687C576.664 577.482 575.06 582.818 574.701 587.334C574.343 591.849 577.211 597.891 586.381 603.474L743.768 699.414C772.415 686.133 799.039 669.783 823.018 650.746C754.637 623.095 643.045 577.991 636.743 575.643Z" fill="#263238"/>
<path d="M687.104 373.731C696.765 375.373 700.539 375.948 705.162 382.91C709.785 389.872 717.635 415.749 719.786 421.119C721.937 426.488 722.578 428.442 721.673 434.418C720.748 440.658 716.521 451.741 714.748 457.816C713.917 460.624 713.37 463.366 712.766 466.24C711.931 469.18 710.859 472.066 709.559 474.876C709.002 476.246 708.03 477.46 706.747 478.39C705.955 478.998 704.86 479.063 704.105 479.622C703.351 480.18 703.143 481.165 702.087 481.625C701.03 482.085 699.558 481.822 698.52 482.347C697.497 483 696.432 483.603 695.331 484.153C694.318 484.41 693.392 484.878 692.633 485.516C691.954 486.157 691.312 487.602 690.086 487.487C688.859 487.372 688.501 486.222 688.444 485.237C688.488 483.304 689.241 481.434 690.595 479.901C691.799 478.194 693.116 476.549 694.539 474.975C695.925 473.515 696.917 471.804 697.445 469.967C697.879 468.735 697.747 467.176 695.916 467.882C693.784 468.735 691.52 470.509 688.954 470.115C687.18 469.852 687.067 468.637 688.105 467.619C689.811 465.941 691.375 464.158 692.784 462.282C694.218 460.361 695.407 458.342 696.898 456.47C697.703 455.497 698.579 454.57 699.52 453.695C702.124 451.232 702.011 447.866 702.313 444.73C702.728 440.379 703.087 429.213 703.087 429.213L691.388 404.141L687.104 373.731Z" fill="#FFBDA7"/>
<path d="M702.331 444.73C702.445 439.558 702.69 434.386 702.916 429.213C699.143 421.233 695.105 412.449 691.406 404.141C695.482 412.449 699.444 420.796 703.294 429.181C702.992 434.369 702.728 439.558 702.331 444.73V444.73Z" fill="white"/>
<path d="M621.874 568.451C625.195 567.433 627.667 567.334 627.629 568.763C627.179 570.523 626.462 572.224 625.497 573.82L622.855 576.989L621.591 580.109C621.591 580.109 620.044 581.751 619.949 581.915C619.855 582.079 619.345 576.086 619.345 576.086C619.345 576.086 617.477 569.19 621.874 568.451Z" fill="#263238"/>
<path d="M657.537 446.552C657.537 446.552 649.989 454.351 645.517 468.965C641.391 482.546 638.241 496.338 636.083 510.26C635.007 516.483 633.271 524.332 630.705 536.531C628.724 545.923 622.497 574.723 622.497 574.723C622.497 574.723 626.082 579.912 630.422 581.488C636.649 583.754 642.649 582.72 643.442 577.876C643.442 577.876 647.555 572.162 653.801 557.417C656.803 550.648 659.201 543.687 660.971 536.597C661.589 532.147 661.772 527.659 661.518 523.182L686.576 485.269C689.346 481.116 692.664 477.258 696.464 473.775C698.811 471.685 700.652 469.206 701.879 466.485C706.03 456.633 699.992 443.383 699.992 443.383L657.537 446.552Z" fill="#263238"/>
<path d="M636.177 510.243C632.139 531.835 627.516 553.345 622.591 574.789C626.931 553.246 631.572 531.753 636.177 510.243Z" fill="white"/>
<path d="M626.402 591.39L625.062 591.16C625.157 590.716 635.195 545.759 642.214 526.877C649.234 507.994 667.631 470.492 667.82 470.114L669.084 470.59C668.895 470.952 650.536 508.438 643.535 527.255C636.535 546.071 626.515 590.946 626.402 591.39Z" fill="black"/>
<path d="M690.52 459.179H649.366C647.86 462.359 646.6 465.623 645.593 468.948C641.788 481.453 638.858 494.147 636.818 506.96C637.818 512.822 638.951 518.848 639.988 522.985C642.762 533.921 644.498 541.638 646.687 546.153C648.8 549.971 651.294 553.619 654.14 557.056C657.07 550.424 659.411 543.607 661.141 536.663C661.758 532.213 661.941 527.725 661.688 523.248L686.218 486.222L687.972 480.393C694.067 471.575 693.369 464.958 690.52 459.179Z" fill="black"/>
<path d="M588.136 583.015C587.4 582.72 586.495 585.232 586.419 586.135C586.344 587.038 588.306 590.716 593.457 593.425C598.609 596.135 607.458 597.645 610.779 598.548C614.1 599.451 616.761 601.832 621.138 603.688C625.025 605.33 630.893 606.2 633.46 605.198C633.955 604.941 634.38 604.594 634.706 604.18C635.032 603.766 635.25 603.296 635.347 602.801C636.045 600.945 635.988 600.519 635.724 600.453L588.136 583.015Z" fill="#37474F"/>
<path d="M637.554 596.348C637.216 598.244 636.494 600.073 635.422 601.75C634.672 602.241 633.816 602.598 632.906 602.798C631.995 602.998 631.048 603.038 630.12 602.916C626.124 602.666 622.276 601.499 618.968 599.533C616.442 598.103 613.715 596.961 610.854 596.134C606.918 595.309 603.053 594.244 599.288 592.949C596.479 591.916 593.864 590.521 591.532 588.811C589.645 587.268 587.891 585.527 588.079 583.36C588.503 581.995 589.401 580.778 590.651 579.876C591.901 578.973 593.442 578.429 595.061 578.319C598.161 578.182 601.26 578.59 604.175 579.518C607.006 580.352 609.937 580.902 612.911 581.16C614.949 581.307 617.345 582.802 618.93 581.242C620.817 579.436 621.553 575.166 622.817 573.032C623.025 572.687 623.308 572.309 623.742 572.227C624.176 572.145 624.893 572.605 625.289 573.065C627.136 575.071 629.503 576.669 632.195 577.728C639.479 580.864 642.856 579.206 642.856 579.206L643.536 577.892C643.536 577.892 644.988 578.598 643.139 581.554C641.579 583.984 640.266 586.527 639.215 589.156C638.297 591.478 637.738 593.897 637.554 596.348V596.348Z" fill="#455A64"/>
<path d="M588.136 583.36C590.419 576.004 600.004 577.975 606.193 579.83C608.386 580.502 610.658 580.959 612.967 581.193C610.634 581.102 608.325 580.743 606.099 580.125C599.985 578.484 590.796 576.382 588.136 583.409V583.36Z" fill="white"/>
<path d="M605.534 579.846C602.42 580.092 601.571 584.476 601.571 584.476C604.361 585.78 607.396 586.636 610.534 587.005C612.716 587.333 614.96 586.942 616.827 585.906C618.695 584.87 620.05 583.265 620.629 581.406C621.95 577.744 620.742 572.621 620.497 570.963C620.354 570.393 620.471 569.797 620.823 569.301C621.175 568.805 621.734 568.447 622.384 568.303C621.85 568.346 621.332 568.485 620.862 568.71C620.392 568.935 619.98 569.242 619.653 569.612C619.325 569.982 619.089 570.406 618.958 570.859C618.827 571.312 618.805 571.783 618.893 572.243C618.987 574.214 618.893 578.105 617.931 579.402C616.968 580.7 612.157 581.274 605.534 579.846Z" fill="#455A64"/>
<path d="M683.538 446.551C688.07 451.212 690.721 457.038 691.085 463.135C691.397 469.058 689.261 474.883 685.066 479.555C683.5 499.521 678.971 537.959 678.971 537.959C685.028 543.378 686.519 546.892 690.104 556.612C692.236 562.523 700.237 581.521 702.218 586.808C691.614 587.941 685.84 597.119 685.84 597.119C685.84 597.119 667.159 573.114 658.178 558.993C651.517 548.55 648.441 544.741 646.46 538.567C644.007 530.866 643.347 526.893 641.158 513.937C638.969 500.982 636.875 484.497 635.799 471.723C634.723 458.948 633.912 445.451 633.912 445.451L683.538 446.551Z" fill="#263238"/>
<path d="M685.916 597.071C675.028 583.114 664.348 568.993 654.989 554.215C651.911 549.906 649.266 545.374 647.083 540.669C645.337 535.835 644 530.896 643.083 525.892C638.267 499.215 635.218 472.319 633.95 445.337L635.535 465.533C636.969 485.746 639.856 505.86 643.555 525.826C644.894 532.394 646.291 539.175 649.725 545.217C660.739 563.051 672.819 580.37 685.916 597.103V597.071Z" fill="white"/>
<path d="M659.518 544.183C654.027 531.999 647.441 465.681 647.781 442.759H646.404C646.29 450.427 646.951 462.922 648.083 476.632C643.611 474.662 640.724 471.05 640.724 452.89H639.347C639.347 471.148 642.083 475.565 648.196 478.012C650.498 505.17 654.612 536.581 658.235 544.643C663.612 556.563 691.671 596.841 691.935 597.185L693.123 596.561C692.84 596.2 664.858 556.021 659.518 544.183Z" fill="black"/>
<path d="M684.368 595.034C682.689 597.103 680.783 598.564 685.557 601.323C689.331 603.441 689.463 605.149 690.614 607.415C691.363 609.624 691.67 611.929 691.519 614.229C691.519 614.229 697.859 605.904 696.01 600.535C694.161 595.166 684.368 595.034 684.368 595.034Z" fill="#455A64"/>
<path d="M704.69 590.273C706.476 591.912 708.577 593.268 710.898 594.279C712.502 595.15 714.163 595.921 714.672 597.563C714.672 597.744 713.729 598.729 713.748 598.91C713.829 599.693 713.798 600.481 713.653 601.258C713.295 603.967 711.597 605.97 711.219 608.663C711.096 609.738 710.875 610.803 710.559 611.848C710.287 613.12 710.167 614.413 710.2 615.707C710.106 617.053 709.993 618.4 709.917 619.746C709.832 620.318 709.832 620.898 709.917 621.47C710.049 622.045 699.52 626.659 695.275 628.432C695.023 628.538 694.765 628.631 694.501 628.711C691.911 629.325 689.152 629.091 686.746 628.054C678.293 625.378 678.821 622.718 678.821 622.718C678.864 621.616 679.264 620.548 679.975 619.635C680.687 618.723 681.68 618.004 682.84 617.562C683.355 617.302 683.898 617.087 684.463 616.922V616.922C686.566 616.242 688.86 616.145 691.029 616.643C691.457 615.55 691.656 614.398 691.614 613.244C691.787 611.519 691.819 609.785 691.709 608.055C691.334 606.102 690.464 604.245 689.161 602.62C687.369 600.469 685.387 597.695 684.199 596.184C683.01 594.673 682.689 591.028 689.727 586.644C696.482 582.457 701.426 583.36 702.388 585.084C702.924 586.885 703.697 588.626 704.69 590.273V590.273Z" fill="#455A64"/>
<path d="M678.707 622.735C678.707 617.661 686.141 615.116 690.991 616.61C686.028 615.806 679.424 617.809 678.707 622.735Z" fill="white"/>
<path opacity="0.1" d="M686.52 619.27C687.083 618.017 688.149 616.985 689.52 616.363C690.017 616.413 690.509 616.495 690.991 616.61C690.142 617.316 687.104 618.366 686.52 619.27Z" fill="black"/>
<path d="M715.653 599.156C717.54 599.845 715.974 602.44 713.766 606.462C711.771 609.435 710.974 612.902 711.502 616.314C711.955 619.877 710.992 621.618 709.219 622.882C707.445 624.146 694.274 629.154 694.274 629.154C697.406 625.712 699.221 621.504 699.463 617.119C700.18 609.27 701.048 604.229 705.539 600.798C706.936 599.814 708.592 599.149 710.357 598.863C712.123 598.576 713.943 598.677 715.653 599.156V599.156Z" fill="black"/>
<path d="M678.707 622.718C678.915 624.261 683.953 627.381 689.897 627.315C695.84 627.25 696.35 626.15 697.274 620.091C698.199 614.032 698.841 605.609 701.86 602.029C704.879 598.45 708.841 596.282 714.634 597.596C715.294 597.875 717.087 599.435 716.427 600.88C716.427 600.88 716.427 599.731 714.049 599.123C712.011 598.614 709.577 598.663 706.181 601.225C702.199 604.197 701.312 611.208 700.86 617.217C700.407 623.227 698.256 628.99 692.538 629.532C690.07 629.823 687.559 629.642 685.18 629.001C682.801 628.36 680.611 627.275 678.764 625.821C678.406 624.813 678.387 623.736 678.707 622.718Z" fill="#37474F"/>
<path d="M644.63 336.032C643.86 335.088 643.385 333.986 643.253 332.835C643.121 331.683 643.335 330.521 643.875 329.464C644.837 327.329 646.838 325.08 652.668 322.453C659.612 319.333 678.67 317.1 688.104 327.953C689.463 329.595 670.707 360.218 671.632 366.572C666.763 362.122 650.706 346.474 650.706 346.474C646.932 345.062 644.592 343.864 643.781 340.744C643.487 339.135 643.785 337.486 644.63 336.032Z" fill="#263238"/>
<path d="M650.705 346.392C645.045 345.095 641.441 340.777 644.63 335.982C642.214 340.908 645.441 344.488 650.705 346.392Z" fill="white"/>
<path d="M644.63 336.032C642.252 333.766 642.837 330.121 644.63 327.691C646.712 325.333 649.49 323.511 652.668 322.42C651.219 323.146 649.82 323.947 648.479 324.817C644.536 327.198 641.592 332.206 644.705 336.032H644.63Z" fill="white"/>
<path d="M647.498 344.75C647.498 344.75 642.347 352.057 642.932 352.664C644.116 353.484 645.379 354.215 646.706 354.848L647.498 344.75Z" fill="#F0997A"/>
<path d="M647.498 344.75C646.214 347.098 644.667 349.315 643.403 351.646C643.233 352.024 642.875 352.467 643.12 352.73C643.444 353.055 643.826 353.332 644.252 353.551C643.743 353.305 642.893 353.108 642.78 352.516C643.819 349.708 645.415 347.079 647.498 344.75Z" fill="white"/>
<path d="M653.875 331.385C650.422 332.813 647.441 335.112 646.328 341.696C646.045 343.42 647.592 345.768 646.894 348.051C643.894 357.903 647.46 366.112 649.649 367.836C651.12 369.051 658.857 369.593 662.857 368.608C667.933 367.377 678.971 363.042 684.236 356.129C690.425 347.919 691.783 337.082 684.972 332.698C675.367 326.525 657.555 329.874 653.875 331.385Z" fill="#FFBDA7"/>
<path d="M646.366 341.696C646.366 343.929 647.876 346.113 647.008 348.395C645.404 354.75 645.291 362.303 649.687 367.836C644.857 362.484 644.857 354.701 646.706 348.33C647.574 346.162 646.14 343.946 646.366 341.762V341.696Z" fill="white"/>
<path d="M680.273 360.776L682.273 372.878C685.387 373.452 685.67 376.654 684.16 379.068L684.896 382.483L663.612 385.8L661.234 368.871L680.273 360.776Z" fill="#FFBDA7"/>
<path d="M650.102 368.083C651.988 368.953 655.857 369.593 661.253 368.936L660.932 366.539C659.221 367.098 657.46 367.537 655.668 367.853C653.836 368.169 651.96 368.246 650.102 368.083V368.083Z" fill="#F0997A"/>
<path d="M648.781 334.898C648.637 336.319 649.065 337.739 649.991 338.916C650.916 340.093 652.283 340.953 653.857 341.351C653.017 342.924 652.703 344.671 652.951 346.392C653.022 347.408 653.426 348.386 654.114 349.21C654.803 350.033 655.748 350.668 656.838 351.039C658.329 351.482 658.725 350.907 659.31 349.873C660.065 348.411 661.027 346.178 664.631 346.589C668.763 347.082 669.858 352.5 667.443 356.047C666.979 356.796 666.312 357.436 665.5 357.911C664.688 358.386 663.755 358.682 662.782 358.772C662.246 358.765 661.719 358.659 661.234 358.461C660.749 358.263 660.319 357.977 659.97 357.623C659.97 357.623 660.235 362.352 667.235 365.16C671.614 367.186 676.686 367.769 681.519 366.801C684.773 363.656 687.84 360.368 690.708 356.95C698.256 347.361 699.86 329.808 686.934 326.655C686.312 326.508 674.556 325.014 668.82 326.163C651.14 329.447 648.819 334.159 648.781 334.898Z" fill="#263238"/>
<path d="M680.689 325.425C679.126 326.404 678.053 327.867 677.689 329.513C677.527 330.334 677.616 331.177 677.948 331.958C678.279 332.739 678.84 333.43 679.576 333.963C683.35 336.541 689.237 333.536 689.935 329.726C690.727 325.228 684.501 322.962 680.689 325.425Z" fill="#92E3A9"/>
<path d="M683.764 326.853C679.896 328.922 677.481 333.799 679.537 337.313C680.103 338.265 680.896 339.119 681.424 340.121C682.915 343.322 680.745 346.853 680.273 350.284C679.95 353.008 680.492 355.757 681.839 358.231C683.123 360.054 685.953 360.514 687.085 362.418C687.859 363.732 687.33 365.341 687.632 366.802C688.293 369.939 692.557 371.449 696.237 371.515C697.792 371.635 699.359 371.455 700.826 370.99C702.293 370.525 703.625 369.785 704.728 368.822C705.572 367.682 706.491 366.585 707.482 365.538C709.671 363.748 713.143 363.896 715.558 362.254C716.452 361.568 717.151 360.712 717.603 359.752C718.055 358.792 718.246 357.755 718.162 356.721C717.94 354.648 717.301 352.625 716.275 350.744C714.709 347.46 715.955 345.342 716.747 342.009C717.119 340.209 716.776 338.352 715.774 336.744C714.773 335.135 713.173 333.871 711.237 333.159C708.577 332.239 705.331 332.387 703.18 330.729C702.16 329.677 701.203 328.581 700.312 327.445C696.274 323.586 688.311 324.44 683.764 326.853Z" fill="#263238"/>
<path d="M698.954 382.778C698.105 380.771 696.762 378.95 695.018 377.444C693.274 375.937 691.171 374.782 688.859 374.059C686.972 373.567 682.273 372.877 682.273 372.877C683.349 375.012 681.537 376.424 678.349 377.064C674.254 377.901 668.008 377.983 663.763 375.537L662.027 374.601C657.394 375.592 652.822 376.787 648.328 378.18C647.403 378.558 642.29 380.052 634.252 395.766C630.817 402.482 631.836 409.296 638.158 414.139C638.516 418.392 635.365 427.965 635.365 427.965C633.763 435.954 633.395 444.093 634.271 452.167C634.271 452.167 638.044 460.87 667.971 460.771C691.123 460.771 702.765 450.919 702.765 450.919C702.482 445.994 693.576 428.704 694.463 422.891C695.84 414.419 704.765 399.23 698.954 382.778Z" fill="#92E3A9"/>
<path d="M648.328 378.181C654.423 382.499 654.894 388.427 653.989 396.423C653.083 404.419 643.856 429.41 641.969 434.845C640.082 440.28 637.384 442.168 632.629 446.568C627.874 450.969 616.76 457.964 611.231 461.97C608.665 463.825 606.382 465.763 603.948 467.783C601.289 469.734 598.477 471.523 595.532 473.135C594.156 473.955 592.554 474.442 590.891 474.547C589.834 474.547 588.909 474.121 587.909 474.186C586.909 474.252 586.022 474.942 584.928 474.777C583.833 474.613 582.739 473.644 581.55 473.529C580.29 473.545 579.03 473.495 577.777 473.382C576.783 473.061 575.711 472.965 574.663 473.103C573.682 473.267 572.191 474.104 571.267 473.398C570.342 472.692 570.852 471.559 571.455 470.722C572.79 469.155 574.669 468.003 576.814 467.438C578.937 466.674 581.111 466.022 583.324 465.484C585.406 464.998 587.339 464.117 588.985 462.906C590.155 462.134 591.098 460.788 589.155 460.443C586.853 460.032 583.815 460.312 581.984 458.686C580.739 457.57 581.475 456.535 583.003 456.24C585.515 455.757 587.982 455.109 590.381 454.302C592.834 453.481 595.155 452.447 597.627 451.691C598.945 451.321 600.287 451.019 601.646 450.788C605.42 450.115 607.59 447.34 609.929 444.959C613.213 441.675 618.854 435.403 622.685 430.904L628.478 406.521C632.138 393.287 633.421 382.187 648.328 378.181Z" fill="#FFBDA7"/>
<path d="M653.951 396.423C652.479 403.647 650.456 410.778 647.895 417.769C647.706 418.343 647.498 418.902 647.31 419.411C644.989 426.258 642.743 432.431 641.913 434.829C640.215 439.754 637.818 441.79 633.837 445.403L632.573 446.552C627.61 451.133 616.704 457.947 611.175 461.97C608.628 463.826 606.326 465.747 603.911 467.766C601.245 469.724 598.427 471.518 595.476 473.136C594.098 473.949 592.496 474.431 590.834 474.531C589.778 474.613 588.853 474.104 587.853 474.17C586.853 474.236 585.966 474.925 584.872 474.761C583.777 474.597 582.683 473.628 581.494 473.53C580.234 473.539 578.974 473.485 577.721 473.365C576.725 473.052 575.655 472.956 574.607 473.086C574.305 473.086 573.947 473.267 573.569 473.382L573.098 473.513C572.885 473.582 572.663 473.626 572.437 473.645C572.226 473.681 572.008 473.677 571.799 473.631C571.591 473.586 571.396 473.501 571.23 473.382C570.192 472.594 570.796 471.559 571.399 470.722C572.733 469.154 574.612 468.002 576.758 467.438C578.881 466.669 581.055 466.011 583.268 465.468C585.35 464.981 587.283 464.101 588.929 462.89C590.099 462.118 591.042 460.788 589.099 460.427C586.797 460.016 583.759 460.295 581.947 458.686C580.683 457.553 581.419 456.519 582.947 456.223C585.46 455.743 587.926 455.095 590.325 454.286C592.778 453.465 595.118 452.43 597.571 451.692C598.885 451.31 600.228 451.008 601.59 450.788C605.364 450.115 607.534 447.324 609.873 444.96C613.157 441.676 618.798 435.387 622.648 430.888L628.422 406.505C632.082 393.205 633.422 382.105 648.272 378.115C649.805 379.196 651.086 380.523 652.046 382.023C654.574 385.898 654.631 390.611 653.951 396.423Z" fill="#FFBDA7"/>
<path d="M571.154 473.398C570.802 473.088 570.592 472.676 570.565 472.241C570.537 471.806 570.693 471.376 571.003 471.034C572.418 468.653 575.494 467.635 578.211 466.831C580.017 466.092 581.917 465.541 583.871 465.189C585.726 464.69 587.468 463.918 589.023 462.906C587.552 464.055 585.833 464.937 583.966 465.501C580.197 466.305 576.577 467.565 573.21 469.244C571.965 470.114 569.795 471.937 571.229 473.333L571.154 473.398Z" fill="white"/>
<path d="M581.984 458.752C579.645 456.42 584.173 456.125 585.871 455.632C590.362 454.63 594.325 452.48 598.74 451.396C601.004 451.094 603.17 450.384 605.099 449.31C608.175 447.192 611.477 442.94 614.024 440.263L622.515 430.855C624.402 422.645 627.402 409.854 629.648 401.513C632.044 391.661 635.724 381.136 648.328 378.181C635.912 381.251 632.289 391.71 629.987 401.579C627.723 410.051 625.006 422.448 622.874 431.134L614.307 440.526C611.684 443.219 608.458 447.389 605.269 449.573C603.314 450.65 601.123 451.36 598.835 451.658C594.419 452.726 590.4 454.827 585.909 455.763C584.192 456.24 579.701 456.453 581.984 458.801V458.752Z" fill="white"/>
<path opacity="0.3" d="M690.991 484.99C690.99 485.628 691.193 486.253 691.576 486.796C691.972 486.369 692.312 485.844 692.651 485.515C693.41 484.877 694.336 484.409 695.35 484.153C696.45 483.602 697.515 482.999 698.538 482.346C699.557 481.821 700.916 482.133 702.105 481.624C703.293 481.115 703.331 480.212 704.124 479.621C704.916 479.03 706.011 478.997 706.765 478.389C708.049 477.459 709.02 476.246 709.577 474.876C710.878 472.066 711.949 469.18 712.785 466.239C713.388 463.365 713.936 460.623 714.766 457.816C716.539 451.74 720.766 440.657 721.691 434.418C722.578 428.441 721.936 426.471 719.804 421.118C717.672 415.765 709.803 389.92 705.18 382.909C700.803 376.341 697.161 375.455 688.557 373.977L688.047 373.862L687.179 373.698L686.5 373.566L685.632 373.419L685.122 373.337L683.877 373.123L682.934 372.975H682.688H682.292L681.292 366.917H681.537C683.066 365.275 684.745 363.715 686.5 361.876C686.714 362.091 686.898 362.328 687.047 362.582C687.84 363.895 687.292 365.488 687.594 366.949C688.255 370.102 692.519 371.596 696.199 371.678C697.755 371.791 699.321 371.607 700.788 371.14C702.255 370.672 703.586 369.931 704.69 368.969C705.54 367.832 706.46 366.736 707.445 365.685C709.633 363.895 713.105 364.043 715.539 362.401C716.431 361.711 717.128 360.851 717.576 359.889C718.024 358.926 718.212 357.887 718.124 356.851C717.911 354.777 717.272 352.753 716.238 350.875C714.671 347.591 715.917 345.472 716.709 342.156C717.083 340.355 716.744 338.497 715.746 336.887C714.749 335.276 713.152 334.007 711.218 333.289C708.539 332.37 705.294 332.534 703.142 330.859C702.128 329.808 701.177 328.712 700.293 327.575C697.274 324.702 692.085 324.455 687.745 325.506C686.673 324.859 685.389 324.531 684.085 324.57C678.198 320.597 670.518 319.644 663.933 320.104C661.454 321.01 659.214 322.345 657.347 324.028C651.422 329.135 647.913 336.639 649.46 343.732C649.762 345.062 650.234 346.343 650.479 347.673C651.102 351.072 650.234 354.536 650.253 357.984C650.271 361.432 651.517 365.242 654.951 366.933C657.555 368.197 660.744 367.951 663.706 368.279C668.574 368.821 668.008 371.432 668.197 375.028C668.279 375.578 668.228 376.138 668.046 376.67C667.971 376.862 667.856 377.04 667.706 377.195C666.442 378.558 662.857 379.1 661.272 379.56C658.131 380.222 655.062 381.123 652.102 382.252C650.742 382.853 649.565 383.725 648.667 384.798C645.063 389.198 643.535 394.436 642.007 399.575C640.591 404.337 639.101 409.099 637.535 413.827C636.126 418.118 634.654 422.387 633.119 426.635C631.925 430.499 630.135 434.206 627.798 437.652C624.874 441.544 620.685 444.565 616.911 447.882C608.363 455.402 601.212 465.024 589.777 468.636C585.381 470.015 580.663 470.393 576.154 471.444C574.588 471.805 572.814 472.528 572.38 473.792C572.606 473.773 572.828 473.729 573.04 473.661L573.512 473.529C573.889 473.414 574.248 473.299 574.55 473.234C575.598 473.104 576.667 473.199 577.663 473.513C578.916 473.632 580.177 473.687 581.437 473.677C582.626 473.775 583.513 474.728 584.815 474.908C586.117 475.089 586.702 474.383 587.796 474.317C588.89 474.252 589.683 474.761 590.777 474.679C592.439 474.578 594.04 474.096 595.419 473.283C598.37 471.665 601.188 469.871 603.853 467.914C606.269 465.894 608.571 463.973 611.118 462.118C616.647 458.095 627.553 451.281 632.516 446.699L633.78 445.55C637.742 441.954 640.139 439.935 641.837 434.992C642.667 432.595 644.913 426.421 647.233 419.574L647.818 417.932C648.689 418.855 649.145 420.022 649.101 421.216C649.8 429.196 651.988 437.275 653.479 445.222C654.536 450.886 655.611 456.551 656.102 462.265C656.479 466.403 656.536 470.475 656.611 474.679L657.064 504.234C657.064 505.876 657.064 507.518 657.159 509.258C657.183 513.91 657.549 518.555 658.253 523.166C658.868 527.23 659.884 531.24 661.291 535.152C661.63 536.104 661.989 537.057 662.385 538.009C666.291 547.45 672.424 556.071 678.33 564.576C684.321 573.664 689.696 583.051 694.425 592.686C695.394 594.371 696.105 596.16 696.538 598.006C697.142 601.192 696.142 604.426 695.859 607.645C695.576 610.863 695.991 613.95 695.859 617.102C695.94 620.275 694.885 623.391 692.84 626.018C691.365 627.672 689.323 628.874 687.009 629.45C688.822 629.724 690.671 629.774 692.5 629.598C693.555 629.513 694.571 629.209 695.463 628.711C700.131 626.997 704.692 625.068 709.124 622.931C710.898 621.7 711.86 619.943 711.426 616.363C710.881 612.953 711.672 609.483 713.671 606.512C714.882 604.707 715.809 602.768 716.426 600.748C716.898 599.353 715.237 597.908 714.539 597.629C714.068 595.987 712.407 595.199 710.766 594.345C708.45 593.334 706.355 591.978 704.576 590.338C703.555 588.685 702.763 586.933 702.218 585.117C701.976 584.718 701.601 584.391 701.142 584.181C698.237 576.907 691.915 561.785 690.047 556.645C686.538 546.908 684.972 543.395 678.915 537.976C678.915 537.976 682.254 509.603 684.198 488.964L686.538 485.401C686.783 485.023 687.028 484.662 687.292 484.3C689.912 480.584 692.973 477.117 696.425 473.956C696.765 473.644 697.104 473.283 697.444 472.938C696.935 473.677 696.444 474.416 695.878 475.138C693.632 478.127 690.821 481.328 690.991 484.99ZM702.539 451.133L702.765 450.952C702.651 449.884 702.417 448.828 702.067 447.8C701.633 446.404 701.029 444.746 700.369 442.956C700.161 442.398 699.935 441.823 699.708 441.314C698.935 439.311 698.104 437.176 697.35 435.107C697.104 434.467 696.878 433.826 696.67 433.203C696.463 432.579 696.18 431.823 695.972 431.167C695.765 430.51 695.67 430.231 695.538 429.771C695.538 429.623 695.444 429.459 695.406 429.311C695.368 429.163 695.236 428.704 695.161 428.424C695.01 427.883 694.878 427.374 694.783 426.881L694.67 426.339C694.661 426.213 694.661 426.087 694.67 425.961C694.615 425.723 694.577 425.482 694.557 425.239V424.746C694.539 424.451 694.539 424.155 694.557 423.86C694.537 423.575 694.537 423.29 694.557 423.006C695.067 420.457 695.767 417.939 696.651 415.469C697.255 413.565 697.935 411.529 698.538 409.361C700.331 412.268 702.067 415.174 703.803 418.097C705.294 420.407 706.557 422.824 707.577 425.321C709.652 431.002 709.143 437.16 708.35 443.087C707.522 449.849 705.8 456.504 703.218 462.922C703.77 458.987 703.54 455 702.539 451.133V451.133Z" fill="black"/>
</svg>
