<svg width="1021" height="764" viewBox="0 0 1021 764" fill="none" xmlns="http://www.w3.org/2000/svg">
<path opacity="0.2" d="M524.007 413.525V393.263L490.382 376.368V356.106L456.757 339.194V318.948L423.152 302.052L277.86 371.015L315.598 389.881V410.143L349.223 427.022V447.3L382.847 464.18V484.458L530.139 669.688C675.997 648.26 787.343 583.632 834.327 500.106C839.761 490.451 844.598 480.725 848.837 470.928L524.007 413.525Z" fill="#8ADEC7"/>
<path opacity="0.15" d="M316.9 18.5183C218.592 67.7772 138.889 199.791 138.889 313.448C138.889 380.981 167.042 426.842 210.592 442.604L228.574 433.574L405.377 344.76L423.812 335.499C467.041 276.306 494.986 202.5 494.986 135.18C494.911 21.5559 415.227 -30.6913 316.9 18.5183Z" fill="#8ADEC7"/>
<path opacity="0.15" d="M316.9 51.3903C234.291 92.7678 167.325 203.699 167.325 299.212C167.325 394.725 234.291 438.631 316.9 397.286C399.509 355.941 466.494 244.961 466.494 149.448C466.494 53.9354 399.528 10.0293 316.9 51.3903Z" fill="#8ADEC7"/>
<path opacity="0.15" d="M316.9 74.5584C245.613 110.386 187.817 206.474 187.817 289.179C187.817 371.885 245.613 409.929 316.9 374.118C388.187 338.307 445.983 242.203 445.983 159.481C445.983 76.7587 388.206 38.7144 316.9 74.5584Z" fill="#8ADEC7"/>
<path d="M240.782 293.104C240.782 221.448 290.861 138.201 352.619 107.151C379.847 93.4902 404.773 92.2259 424.152 101.224L399.037 88.5807C379.413 78.729 353.751 79.55 325.749 93.638C263.953 124.687 213.894 207.935 213.894 279.59C213.894 318.817 228.895 346.435 252.613 358.322C256.67 360.342 271.746 367.944 277.898 371.031C255.047 358.7 240.782 331.443 240.782 293.104Z" fill="#8ADEC7"/>
<path opacity="0.3" d="M240.782 293.104C240.782 221.448 290.861 138.201 352.619 107.151C379.847 93.4902 404.773 92.2259 424.152 101.224L399.037 88.5807C379.413 78.729 353.751 79.55 325.749 93.638C263.953 124.687 213.894 207.935 213.894 279.59C213.894 318.817 228.895 346.435 252.613 358.322C256.67 360.342 271.746 367.944 277.898 371.031C255.047 358.7 240.782 331.443 240.782 293.104Z" fill="#FAFAFA"/>
<path d="M396.565 122.175C406.32 133.505 411.547 151.534 410.377 174.981C407.566 232.45 367.393 300.821 320.674 327.568C306.484 335.696 293.295 339.062 281.935 338.159C296.125 354.579 319.9 356.927 347.562 341.082C394.301 314.334 434.473 246.012 437.284 188.478C439.209 148.447 422.566 124.195 396.565 122.175Z" fill="#8ADEC7"/>
<path opacity="0.15" d="M396.565 122.175C406.32 133.505 411.547 151.534 410.377 174.981C407.566 232.45 367.393 300.821 320.674 327.568C306.484 335.696 293.295 339.062 281.935 338.159C296.125 354.579 319.9 356.927 347.562 341.082C394.301 314.334 434.473 246.012 437.284 188.478C439.209 148.447 422.566 124.195 396.565 122.175Z" fill="black"/>
<path d="M269.274 139.777L296.163 153.291L298.314 150.778L271.425 137.232C270.69 138.102 269.991 138.874 269.274 139.777Z" fill="#8ADEC7"/>
<path d="M256.934 218.033L229.951 204.553C229.574 205.456 229.215 206.392 228.857 207.311L255.745 220.824C256.123 219.872 256.462 218.936 256.934 218.033Z" fill="#8ADEC7"/>
<path d="M379.583 82.6205L406.49 96.1831C407.585 96.3473 408.679 96.5115 409.755 96.7085L382.847 83.1952C381.772 82.9489 380.677 82.7683 379.583 82.6205Z" fill="#8ADEC7"/>
<path d="M244.575 257.719C244.782 256.701 245.009 255.667 245.235 254.649L218.347 241.135C218.101 242.154 217.875 243.172 217.667 244.206L244.575 257.719Z" fill="#8ADEC7"/>
<path d="M295.71 113.506L322.598 127.019C323.523 126.247 324.485 125.476 325.391 124.737L298.446 111.223C297.559 111.962 296.559 112.734 295.71 113.506Z" fill="#8ADEC7"/>
<path d="M244.707 325.27C244.462 324.367 244.235 323.447 244.009 322.528L243.801 322.117L217.045 308.669C217.29 309.72 217.535 310.755 217.818 311.773L244.707 325.27Z" fill="#8ADEC7"/>
<path d="M356.129 83.228C354.997 83.425 353.827 83.6877 352.676 83.934L379.583 97.4474C380.753 97.1847 381.923 96.9548 383.074 96.7578L356.129 83.228Z" fill="#8ADEC7"/>
<path d="M354.298 106.363L327.41 92.8991C326.844 93.1782 326.297 93.4081 325.749 93.6872L324.108 94.5575L350.996 108.071L352.619 107.201L354.298 106.363Z" fill="#8ADEC7"/>
<path d="M246.48 171.713L273.369 185.227L274.954 182.665L248.065 169.152C247.499 169.973 246.99 170.827 246.48 171.713Z" fill="#8ADEC7"/>
<path d="M256.123 351.048C255.519 350.145 254.953 349.242 254.368 348.306L227.498 334.809C228.064 335.745 228.668 336.648 229.272 337.552L256.123 351.048Z" fill="#8ADEC7"/>
<path d="M213.894 279.853L240.782 293.383V293.104C240.782 292.102 240.782 291.068 240.782 290.05L213.875 276.536C213.875 277.554 213.875 278.589 213.875 279.59L213.894 279.853Z" fill="#8ADEC7"/>
<path d="M352.619 107.151C290.86 138.201 240.782 221.448 240.782 293.104C240.782 364.759 290.86 397.713 352.619 366.68C414.377 335.647 464.493 252.399 464.493 180.728C464.493 109.056 414.396 76.1183 352.619 107.151ZM437.228 188.478C434.416 245.946 394.244 314.318 347.505 341.065C300.767 367.813 265.199 342.871 268.01 285.354C270.822 227.836 311.031 159.514 357.732 132.766C404.433 106.018 440.058 130.96 437.228 188.478Z" fill="#8ADEC7"/>
<g opacity="0.15">
<path d="M329.731 154.391C330.636 153.52 331.523 152.634 332.448 151.78L325.372 124.737C324.429 125.476 323.485 126.231 322.579 127.003L329.731 154.391Z" fill="black"/>
<path d="M350.977 108.005V137.002C352.072 136.263 353.166 135.541 354.279 134.851V106.347L352.619 107.151L350.977 108.005Z" fill="black"/>
<path d="M373.714 125.476C374.922 125.065 376.13 124.688 377.318 124.359L382.979 96.7414C381.828 96.9385 380.658 97.1683 379.488 97.4146L373.714 125.476Z" fill="black"/>
<path d="M282.539 225.258L283.728 222.532L256.934 218.017C256.557 218.936 256.179 219.856 255.821 220.775L282.539 225.258Z" fill="black"/>
<path d="M295.238 199.627L296.748 197L274.935 182.649L273.369 185.227L295.238 199.627Z" fill="black"/>
<path d="M459.908 146.312L436.19 165.671C436.379 166.82 436.548 167.986 436.699 169.201L460.871 149.498C460.512 148.447 460.229 147.363 459.908 146.312Z" fill="black"/>
<path d="M268.821 275.978L240.82 290.033C240.82 291.068 240.82 292.086 240.82 293.104V293.383L268.482 279.492C268.538 278.326 268.689 277.144 268.821 275.978Z" fill="black"/>
<path d="M273.35 252.17C273.633 251.135 273.935 250.101 274.218 249.05L245.216 254.616C244.99 255.634 244.763 256.669 244.556 257.687L273.35 252.17Z" fill="black"/>
<path d="M395.999 122.159C397.15 122.241 398.263 122.356 399.357 122.52L409.773 96.6265C408.679 96.4294 407.584 96.2488 406.471 96.0846L395.999 122.159Z" fill="black"/>
<path d="M428.906 143.701C429.435 144.67 429.944 145.688 430.435 146.723L449.87 123.949C449.285 123.029 448.662 122.143 447.983 121.272L428.906 143.701Z" fill="black"/>
<path d="M415.17 128.448C416.057 129.039 416.925 129.663 417.774 130.336L432.416 105.936C431.529 105.329 430.642 104.754 429.718 104.196L415.17 128.448Z" fill="black"/>
<path d="M311.031 175.72L313.069 173.043L298.295 150.762L296.144 153.291L311.031 175.72Z" fill="black"/>
<path d="M376.092 318.882C375.205 319.786 374.205 320.656 373.394 321.51L380.47 348.635C381.413 347.896 382.356 347.091 383.262 346.32L376.092 318.882Z" fill="black"/>
<path d="M411.17 272.234C410.679 273.121 410.169 273.991 409.66 274.861L431.529 289.245L433.058 286.634L411.17 272.234Z" fill="black"/>
<path d="M395.206 296.831L393.168 299.524L407.981 321.854C408.698 321.017 409.434 320.213 410.132 319.342L395.206 296.831Z" fill="black"/>
<path d="M423.774 245.979C423.397 246.899 423.038 247.818 422.642 248.721L449.436 253.22C449.813 252.301 450.172 251.381 450.53 250.462L423.774 245.979Z" fill="black"/>
<path d="M432.624 218.739C432.378 219.774 432.133 220.808 431.85 221.826L460.72 216.325C460.927 215.291 461.116 214.273 461.324 213.255L432.624 218.739Z" fill="black"/>
<path d="M464.494 177.707L437.02 191.417C437.02 192.566 436.85 193.716 436.756 194.881L464.494 181.007V180.728C464.494 179.71 464.494 178.708 464.494 177.707Z" fill="black"/>
<path d="M354.279 365.81V336.846C353.185 337.584 352.072 338.307 350.977 338.997V367.501L352.619 366.68C353.166 366.401 353.732 366.089 354.279 365.81Z" fill="black"/>
<path d="M275.445 328.422C274.935 327.421 274.444 326.386 273.973 325.303L254.368 348.29C254.934 349.226 255.538 350.145 256.141 351.032L275.445 328.422Z" fill="black"/>
<path d="M288.898 344.596C288.03 343.972 287.181 343.315 286.351 342.609L271.633 367.107C272.501 367.731 273.388 368.322 274.293 368.897L288.898 344.596Z" fill="black"/>
<path d="M330.901 348.602C329.693 348.996 328.504 349.341 327.316 349.669L321.655 377.205C322.825 377.008 323.995 376.795 325.164 376.548L330.901 348.602Z" fill="black"/>
<path d="M308.163 351.607C307.031 351.508 305.937 351.36 304.842 351.18L294.54 376.959C295.634 377.189 296.729 377.369 297.823 377.533L308.163 351.607Z" fill="black"/>
<path d="M268.765 305.714C268.614 304.532 268.482 303.317 268.369 302.085L243.839 322.002C244.103 323.102 244.367 324.186 244.65 325.286L268.765 305.714Z" fill="black"/>
</g>
<path d="M382.809 484.474L254.99 420.257V359.455L281.898 372.969L315.56 389.897V410.159L349.185 427.038V447.317L382.809 464.196V484.474Z" fill="#263238"/>
<path d="M281.935 373.002L423.151 302.052L456.757 318.948L315.56 389.897L281.935 373.002Z" fill="#455A64"/>
<path d="M315.56 389.897V410.159L456.757 339.21V318.948L315.56 389.897Z" fill="#37474F"/>
<path d="M315.56 410.159L456.757 339.21L490.382 356.106L349.185 427.038L315.56 410.159Z" fill="#455A64"/>
<path d="M349.185 427.038V447.317L490.382 376.368V356.106L349.185 427.038Z" fill="#37474F"/>
<path d="M349.185 447.317L490.382 376.368L524.007 393.263L382.809 464.196L349.185 447.317Z" fill="#455A64"/>
<path d="M382.809 464.196V484.474L524.007 413.525V393.263L382.809 464.196Z" fill="#37474F"/>
<path d="M423.246 181.565C420.434 239.034 380.243 307.405 333.523 334.169C316.164 344.103 300.352 346.911 287.445 343.545C274.237 333.053 266.689 312.955 268.01 285.386C270.84 227.918 311.032 159.546 357.732 132.799C375.111 122.849 390.961 120.057 403.848 123.44C417.132 133.948 424.604 153.98 423.246 181.565Z" fill="#8ADEC7"/>
<path opacity="0.9" d="M423.246 181.565C420.434 239.034 380.243 307.405 333.523 334.169C316.164 344.103 300.352 346.911 287.445 343.545C274.237 333.053 266.689 312.955 268.01 285.386C270.84 227.918 311.032 159.546 357.732 132.799C375.111 122.849 390.961 120.057 403.848 123.44C417.132 133.948 424.604 153.98 423.246 181.565Z" fill="#FAFAFA"/>
<path opacity="0.2" d="M333.316 304.712C318.73 306.181 305.234 312.153 295.276 321.542C289.896 326.567 285.51 332.331 282.294 338.602C283.847 340.369 285.57 342.017 287.445 343.528C290.223 344.235 293.085 344.664 295.974 344.809C296.729 343.167 297.295 341.443 297.955 339.785C301.218 332.063 307.033 325.353 314.668 320.5C322.304 315.647 331.418 312.868 340.864 312.512C347.336 312.364 353.751 313.382 360.185 313.825C362.733 311.379 365.224 308.899 367.733 306.206C356.336 305.697 344.581 303.727 333.316 304.712ZM330.523 220.627C343.732 222.122 358.148 222.762 369.695 216.884C382.772 210.217 388.98 197 395.282 185.03C401.15 173.914 409.17 162.174 421.982 157.872C419.321 142.322 412.943 130.615 403.83 123.39C397.614 121.834 391.06 121.592 384.715 122.684C378.322 129.054 373.665 136.597 371.092 144.752C368.073 153.947 367.016 163.717 362.167 172.272C357.228 180.873 348.846 187.606 338.599 191.203C330.523 193.995 321.749 194.668 313.164 195.817C307.175 196.587 301.255 197.717 295.446 199.2C290.964 206.946 286.97 214.9 283.483 223.025C285.799 221.993 288.21 221.131 290.691 220.447C303.503 217.015 317.315 219.15 330.523 220.627ZM344.034 163.159C348.26 156.804 349.694 149.399 352.015 142.322C352.845 139.679 353.902 137.101 354.883 134.523C351.864 136.373 348.87 138.387 345.902 140.565C341.637 149.58 337.486 158.627 329.618 165.425C325.607 168.844 320.819 171.495 315.56 173.207C314.567 173.497 313.543 173.7 312.503 173.815C310.579 176.278 308.692 178.796 306.843 181.368C311.1 181.071 315.318 180.445 319.447 179.496C329.67 176.827 338.421 170.999 344.052 163.109L344.034 163.159ZM423.284 173.125C419.593 174.79 416.251 176.982 413.396 179.611C406.377 186.31 402.603 194.996 398.301 203.272C392.301 215.061 384.47 227.064 371.431 233.172C362.752 237.228 352.562 238.246 342.807 238.476C324.221 238.919 305.352 236.834 287.181 240.298C283.265 241.042 279.436 242.103 275.746 243.467C274.489 247.397 273.388 251.31 272.444 255.207C276.676 253.258 281.152 251.743 285.785 250.692C312.635 244.781 342.392 257.752 368.11 249.05C386.98 242.63 398.471 226.325 407.736 210.661C411.509 204.273 415.566 197.525 422.076 193.289C422.579 189.381 422.931 185.506 423.133 181.664C423.378 178.626 423.416 175.818 423.359 173.076L423.284 173.125ZM356.298 268.835C341.769 269.295 327.259 268.113 312.73 267.932C305.285 267.58 297.823 268.245 290.615 269.903C284.306 271.76 278.371 274.469 273.029 277.932C271.388 278.95 269.803 280.001 268.237 281.068C268.123 282.529 268.01 283.974 267.935 285.403C267.123 302.069 269.557 315.976 274.52 326.715C277.728 324.292 280.579 321.535 283.011 318.505C292.993 306.765 302.616 293.777 317.749 287.488C333.995 280.74 353.147 283.153 370.809 280.066C378.535 278.693 385.957 276.248 392.791 272.825C395.584 268.272 398.219 263.63 400.697 258.902C399.943 259.296 399.169 259.673 398.395 260.051C385.621 266.143 370.884 268.326 356.374 268.786L356.298 268.835Z" fill="#8ADEC7"/>
<path d="M510.036 156.532C510.036 162.115 508.829 167.074 500.979 168.272C509.018 168.568 509.584 173.198 510.036 179.668C510.301 173.247 510.999 168.568 518.282 168.272C510.772 167.189 510.036 162.115 510.036 156.532Z" fill="#92E3A9"/>
<path d="M326.893 453.744C326.893 459.327 325.686 464.285 317.836 465.484C325.875 465.78 326.441 470.41 326.893 476.879C327.158 470.443 327.856 465.78 335.139 465.484C327.592 464.384 326.893 459.327 326.893 453.744Z" fill="#92E3A9"/>
<path d="M267.89 281.732C267.89 284.178 267.362 286.329 263.927 286.855C267.437 286.986 267.701 289.039 267.89 291.781C268.003 288.973 268.305 286.855 271.494 286.855C268.192 286.379 267.89 284.178 267.89 281.732Z" fill="#92E3A9"/>
<path d="M252.455 291.337C252.455 296.904 251.228 301.862 243.398 303.061C251.436 303.357 252.002 307.987 252.455 314.473C252.7 308.036 253.398 303.373 260.701 303.061C253.153 302.059 252.455 296.904 252.455 291.337Z" fill="#E0E0E0"/>
<path d="M245.096 263.358C245.096 266.232 244.473 268.76 240.454 269.384C244.568 269.532 244.87 271.929 245.096 275.23C245.228 271.946 245.587 269.532 249.342 269.384C245.455 268.826 245.096 266.232 245.096 263.358Z" fill="#E0E0E0"/>
<path d="M488.243 139.751C488.243 143.035 488.148 146.155 482.733 146.894C488.394 146.894 488.016 149.964 488.299 153.905C488.45 149.964 488.846 147.14 493.318 146.96C488.696 146.286 488.828 144.431 488.243 139.751Z" fill="#E0E0E0"/>
<path d="M535.302 291.715C534.906 297.872 534.34 300.532 527.943 301.271C534.453 301.583 535 305.343 535.378 310.581C535.585 305.343 536.114 301.534 542.057 301.271C535.944 300.417 535.793 297.955 535.302 291.715Z" fill="#E0E0E0"/>
<path d="M300.892 453.793C300.665 457.389 300.345 458.933 296.609 459.376C300.382 459.556 300.722 461.724 300.949 464.778C301.062 461.724 301.364 459.507 304.836 459.376C301.326 458.85 301.175 457.438 300.892 453.793Z" fill="#E0E0E0"/>
<path d="M521.943 150.818C521.943 152.805 521.943 154.71 518.603 155.153C522.075 155.153 521.811 157.009 521.981 159.389C522.075 157.009 522.301 155.301 525 155.186C522.207 154.775 522.283 153.659 521.943 150.818Z" fill="#E0E0E0"/>
<path d="M529.056 309.613C529.056 311.583 529.056 313.488 525.717 313.931C529.17 313.931 528.906 315.803 529.075 318.184C529.17 315.803 529.415 314.079 532.113 313.98C529.321 313.553 529.396 312.437 529.056 309.613Z" fill="#E0E0E0"/>
<path d="M318.308 445.961C318.308 447.931 318.308 449.836 314.968 450.279C318.44 450.279 318.176 452.135 318.346 454.516C318.44 452.135 318.685 450.427 321.384 450.312C318.629 449.918 318.704 448.785 318.308 445.961Z" fill="#E0E0E0"/>
<path d="M792.906 402.734L852.325 372.883L942.028 417.939L985.069 396.314L895.384 351.259L924.518 336.613L877.345 312.886L848.211 327.532L796.208 301.442L753.149 323.083L805.096 349.239L694.315 404.803L728.978 422.208L1008.58 487.525L1014.01 484.8C1016.68 475.473 1018.89 465.955 1020.64 456.246L792.906 402.734Z" fill="#263238"/>
<path d="M798.491 173.697L796.265 174.814V111.729L769.358 98.216L736.073 114.931L763.527 25.1159L736.639 11.6025L690.353 34.8527L615.556 278.224V313.116L642.444 326.629L726.393 284.431V309.569L753.3 323.083L796.208 301.442V249.293L825.323 234.663V187.21L798.491 173.697ZM726.393 209.968L703.618 221.462L726.393 146.884V209.968Z" fill="#8ADEC7"/>
<path opacity="0.3" d="M798.491 173.697L796.265 174.814V111.729L769.358 98.216L736.073 114.931L763.527 25.1159L736.639 11.6025L690.353 34.8527L615.556 278.224V313.116L642.444 326.629L726.393 284.431V309.569L753.3 323.083L796.208 301.442V249.293L825.323 234.663V187.21L798.491 173.697ZM726.393 209.968L703.618 221.462L726.393 146.884V209.968Z" fill="black"/>
<path d="M796.246 201.84V111.729L753.206 133.354V223.481L693.768 253.332L763.527 25.1159L717.241 48.3661L642.444 291.738V326.564L753.206 270.934V323.083L796.246 301.442V249.293L825.38 234.663V187.21L796.246 201.84Z" fill="#8ADEC7"/>
<path opacity="0.3" d="M796.246 201.84V111.729L753.206 133.354V223.481L693.768 253.332L763.527 25.1159L717.241 48.3661L642.444 291.738V326.564L753.206 270.934V323.083L796.246 301.442V249.293L825.38 234.663V187.21L796.246 201.84Z" fill="#FAFAFA"/>
<path d="M763.527 25.1159L736.639 11.6025L690.353 34.8527L717.241 48.3661L763.527 25.1159Z" fill="#8ADEC7"/>
<path opacity="0.5" d="M763.527 25.1159L736.639 11.6025L690.353 34.8527L717.241 48.3661L763.527 25.1159Z" fill="#FAFAFA"/>
<path d="M769.358 98.216L796.246 111.729L753.206 133.354L733.469 123.437L736.073 114.931L769.358 98.216Z" fill="#8ADEC7"/>
<path opacity="0.5" d="M769.358 98.216L796.246 111.729L753.206 133.354L733.469 123.437L736.073 114.931L769.358 98.216Z" fill="#FAFAFA"/>
<path d="M753.206 223.481L726.298 209.968L703.523 221.412L693.768 253.332L753.206 223.481Z" fill="#8ADEC7"/>
<path opacity="0.5" d="M753.206 223.481L726.298 209.968L703.523 221.412L693.768 253.332L753.206 223.481Z" fill="#FAFAFA"/>
<path d="M825.38 187.21L798.492 173.697L796.246 174.814V201.84L825.38 187.21Z" fill="#8ADEC7"/>
<path opacity="0.5" d="M796.246 201.84L825.38 187.21L798.492 173.697L796.246 174.814V201.84Z" fill="#FAFAFA"/>
<path d="M642.444 291.738L615.556 278.224L690.353 34.8528L717.241 48.3661L642.444 291.738Z" fill="#8ADEC7"/>
<path opacity="0.15" d="M642.444 291.738L615.556 278.224L690.353 34.8528L717.241 48.3661L642.444 291.738Z" fill="black"/>
<path d="M308.962 612.188L261.733 588.462L232.618 603.092L180.709 577.018L137.65 598.642L189.559 624.717L78.7976 680.363L113.46 697.784L393.081 763.101L439.366 739.851L177.351 678.31L236.788 648.443L326.473 693.515L369.532 671.874L279.828 626.818L308.962 612.188Z" fill="#263238"/>
<path d="M182.936 449.256L180.709 450.389V387.24L153.802 373.726L120.517 390.523L147.971 300.708L121.083 287.195L74.7973 310.412L0.000366211 553.8V588.626L26.9642 602.14L110.837 560.007V585.129L137.726 598.642L180.785 577.018V524.852L209.9 510.222V462.77L182.936 449.256ZM110.762 485.527L87.9868 497.021L110.762 422.509V485.527Z" fill="#8ADEC7"/>
<path opacity="0.3" d="M182.936 449.256L180.709 450.389V387.24L153.802 373.726L120.517 390.523L147.971 300.708L121.083 287.195L74.7973 310.412L0.000366211 553.8V588.626L26.9642 602.14L110.837 560.007V585.129L137.726 598.642L180.785 577.018V524.852L209.9 510.222V462.77L182.936 449.256ZM110.762 485.527L87.9868 497.021L110.762 422.509V485.527Z" fill="black"/>
<path d="M180.709 477.416V387.289L137.65 408.913V499.041L78.2125 528.892L147.99 300.675L101.704 323.926L26.8887 567.297V602.14L137.65 546.493V598.642L180.709 577.018V524.852L209.824 510.223V462.77L180.709 477.416Z" fill="#8ADEC7"/>
<path opacity="0.3" d="M180.709 477.416V387.289L137.65 408.913V499.041L78.2125 528.892L147.99 300.675L101.704 323.926L26.8887 567.297V602.14L137.65 546.493V598.642L180.709 577.018V524.852L209.824 510.223V462.77L180.709 477.416Z" fill="#FAFAFA"/>
<path d="M147.99 300.675L121.083 287.162L74.7974 310.412L101.705 323.926L147.99 300.675Z" fill="#8ADEC7"/>
<path opacity="0.5" d="M147.99 300.675L121.083 287.162L74.7974 310.412L101.705 323.926L147.99 300.675Z" fill="#FAFAFA"/>
<path d="M153.802 373.775L180.709 387.289L137.65 408.913L117.913 399.012L120.517 390.507L153.802 373.775Z" fill="#8ADEC7"/>
<path opacity="0.5" d="M153.802 373.775L180.709 387.289L137.65 408.913L117.913 399.012L120.517 390.507L153.802 373.775Z" fill="#FAFAFA"/>
<path d="M137.65 499.041L110.762 485.527L87.9869 496.972L78.2128 528.892L137.65 499.041Z" fill="#8ADEC7"/>
<path opacity="0.5" d="M137.65 499.041L110.762 485.527L87.9869 496.972L78.2128 528.892L137.65 499.041Z" fill="#FAFAFA"/>
<path d="M209.824 462.77L182.936 449.256L180.709 450.389V477.416L209.824 462.77Z" fill="#8ADEC7"/>
<path opacity="0.5" d="M180.709 477.416L209.824 462.77L182.936 449.256L180.709 450.389V477.416Z" fill="#FAFAFA"/>
<path d="M26.8888 567.297L0.000366211 553.8L74.7973 310.412L101.705 323.926L26.8888 567.297Z" fill="#8ADEC7"/>
<path opacity="0.15" d="M26.8888 567.297L0.000366211 553.8L74.7973 310.412L101.705 323.926L26.8888 567.297Z" fill="black"/>
<path d="M636.742 575.643C629.217 572.655 621.255 570.583 613.081 569.486C608.079 568.764 602.972 568.803 597.985 569.601C594.435 570.233 590.996 571.271 587.758 572.688C576.663 577.482 575.059 582.819 574.701 587.334C574.342 591.85 577.21 597.892 586.381 603.475L743.768 699.414C772.415 686.134 799.039 669.784 823.018 650.747C754.636 623.096 643.045 577.991 636.742 575.643Z" fill="#263238"/>
<path d="M687.104 373.731C696.765 375.373 700.538 375.948 705.161 382.91C709.784 389.872 717.634 415.749 719.785 421.118C721.936 426.488 722.578 428.441 721.672 434.418C720.747 440.658 716.521 451.741 714.747 457.816C713.917 460.624 713.369 463.366 712.766 466.239C711.931 469.18 710.859 472.066 709.558 474.876C709.001 476.246 708.03 477.46 706.746 478.39C705.954 478.997 704.86 479.063 704.105 479.621C703.35 480.18 703.142 481.165 702.086 481.625C701.029 482.084 699.557 481.822 698.52 482.347C697.496 483 696.431 483.603 695.331 484.153C694.317 484.41 693.391 484.878 692.632 485.516C691.953 486.156 691.312 487.601 690.085 487.486C688.859 487.371 688.5 486.222 688.443 485.237C688.487 483.304 689.241 481.434 690.594 479.901C691.798 478.193 693.115 476.549 694.538 474.975C695.924 473.515 696.917 471.804 697.444 469.967C697.878 468.735 697.746 467.175 695.916 467.881C693.783 468.735 691.519 470.509 688.953 470.114C687.179 469.852 687.066 468.637 688.104 467.619C689.81 465.941 691.374 464.157 692.783 462.282C694.217 460.361 695.406 458.342 696.897 456.47C697.702 455.497 698.578 454.57 699.52 453.695C702.124 451.232 702.01 447.866 702.312 444.73C702.727 440.379 703.086 429.213 703.086 429.213L691.387 404.14L687.104 373.731Z" fill="#FFBDA7"/>
<path d="M702.331 444.73C702.444 439.557 702.689 434.385 702.916 429.213C699.142 421.233 695.104 412.449 691.406 404.14C695.481 412.449 699.444 420.795 703.293 429.18C702.991 434.369 702.727 439.557 702.331 444.73V444.73Z" fill="white"/>
<path d="M621.873 568.451C625.194 567.433 627.666 567.335 627.628 568.763C627.179 570.524 626.462 572.225 625.496 573.821L622.855 576.99L621.59 580.109C621.59 580.109 620.043 581.751 619.949 581.916C619.854 582.08 619.345 576.087 619.345 576.087C619.345 576.087 617.477 569.19 621.873 568.451Z" fill="#263238"/>
<path d="M657.536 446.552C657.536 446.552 649.988 454.352 645.516 468.965C641.39 482.547 638.24 496.338 636.082 510.26C635.006 516.483 633.27 524.332 630.704 536.532C628.723 545.924 622.496 574.724 622.496 574.724C622.496 574.724 626.081 579.912 630.421 581.489C636.648 583.755 642.648 582.72 643.441 577.876C643.441 577.876 647.554 572.162 653.8 557.417C656.802 550.648 659.2 543.688 660.97 536.597C661.588 532.147 661.771 527.66 661.517 523.183L686.575 485.27C689.345 481.116 692.663 477.259 696.463 473.776C698.81 471.685 700.651 469.206 701.878 466.486C706.029 456.634 699.991 443.383 699.991 443.383L657.536 446.552Z" fill="#263238"/>
<path d="M636.176 510.244C632.138 531.836 627.515 553.345 622.59 574.789C626.93 553.247 631.572 531.754 636.176 510.244Z" fill="white"/>
<path d="M626.402 591.39L625.062 591.16C625.157 590.716 635.195 545.76 642.214 526.877C649.234 507.994 667.631 470.492 667.82 470.114L669.084 470.591C668.895 470.952 650.535 508.438 643.535 527.255C636.535 546.072 626.515 590.946 626.402 591.39Z" fill="black"/>
<path d="M690.519 459.179H649.366C647.86 462.359 646.599 465.623 645.592 468.949C641.787 481.453 638.857 494.147 636.818 506.96C637.818 512.822 638.95 518.848 639.988 522.986C642.761 533.921 644.497 541.638 646.686 546.154C648.799 549.971 651.293 553.619 654.139 557.056C657.07 550.425 659.41 543.607 661.14 536.663C661.758 532.213 661.941 527.725 661.687 523.248L686.217 486.222L687.972 480.393C694.066 471.576 693.368 464.959 690.519 459.179Z" fill="black"/>
<path d="M588.136 583.016C587.4 582.72 586.494 585.232 586.418 586.135C586.343 587.039 588.305 590.717 593.457 593.426C598.608 596.135 607.457 597.646 610.778 598.549C614.099 599.452 616.76 601.833 621.138 603.688C625.025 605.33 630.893 606.2 633.459 605.199C633.954 604.942 634.379 604.594 634.705 604.18C635.031 603.767 635.25 603.296 635.346 602.801C636.044 600.946 635.987 600.519 635.723 600.453L588.136 583.016Z" fill="#37474F"/>
<path d="M637.554 596.349C637.215 598.245 636.493 600.074 635.421 601.751C634.671 602.242 633.816 602.598 632.905 602.799C631.995 602.999 631.048 603.039 630.119 602.916C626.124 602.667 622.276 601.5 618.968 599.534C616.441 598.104 613.714 596.961 610.854 596.135C606.918 595.309 603.053 594.245 599.287 592.95C596.478 591.917 593.864 590.522 591.532 588.812C589.645 587.268 587.89 585.528 588.079 583.361C588.503 581.996 589.401 580.779 590.651 579.876C591.901 578.974 593.441 578.43 595.061 578.32C598.16 578.183 601.26 578.59 604.174 579.518C607.005 580.352 609.936 580.903 612.911 581.16C614.949 581.308 617.345 582.802 618.93 581.242C620.817 579.436 621.553 575.167 622.817 573.033C623.025 572.688 623.308 572.31 623.742 572.228C624.176 572.146 624.893 572.606 625.289 573.065C627.136 575.072 629.503 576.67 632.195 577.729C639.478 580.865 642.856 579.206 642.856 579.206L643.535 577.893C643.535 577.893 644.988 578.599 643.139 581.554C641.579 583.984 640.266 586.528 639.214 589.157C638.296 591.479 637.738 593.898 637.554 596.349V596.349Z" fill="#455A64"/>
<path d="M588.135 583.361C590.419 576.005 600.004 577.975 606.193 579.83C608.386 580.503 610.658 580.96 612.967 581.193C610.634 581.102 608.324 580.743 606.099 580.126C599.985 578.484 590.796 576.382 588.135 583.41V583.361Z" fill="white"/>
<path d="M605.533 579.847C602.419 580.093 601.57 584.477 601.57 584.477C604.36 585.781 607.396 586.637 610.533 587.006C612.715 587.334 614.959 586.943 616.826 585.907C618.694 584.871 620.049 583.266 620.628 581.407C621.949 577.745 620.741 572.622 620.496 570.964C620.353 570.394 620.47 569.798 620.822 569.302C621.174 568.806 621.733 568.448 622.383 568.304C621.849 568.347 621.331 568.486 620.861 568.711C620.391 568.936 619.979 569.243 619.652 569.613C619.324 569.983 619.088 570.407 618.957 570.86C618.826 571.313 618.804 571.784 618.892 572.244C618.986 574.215 618.892 578.106 617.93 579.403C616.967 580.701 612.156 581.275 605.533 579.847Z" fill="#455A64"/>
<path d="M683.537 446.552C688.07 451.213 690.721 457.039 691.085 463.136C691.396 469.059 689.261 474.884 685.066 479.556C683.5 499.522 678.971 537.96 678.971 537.96C685.028 543.379 686.519 546.893 690.104 556.613C692.236 562.524 700.237 581.522 702.218 586.809C691.613 587.942 685.839 597.12 685.839 597.12C685.839 597.12 667.159 573.115 658.177 558.994C651.517 548.551 648.441 544.742 646.46 538.568C644.007 530.867 643.346 526.893 641.158 513.938C638.969 500.983 636.874 484.498 635.799 471.723C634.723 458.949 633.912 445.452 633.912 445.452L683.537 446.552Z" fill="#263238"/>
<path d="M685.915 597.071C675.028 583.114 664.348 568.993 654.989 554.216C651.911 549.907 649.265 545.374 647.083 540.67C645.336 535.835 643.999 530.896 643.082 525.892C638.267 499.215 635.217 472.319 633.95 445.337L635.535 465.533C636.969 485.746 639.856 505.86 643.554 525.826C644.894 532.394 646.29 539.175 649.724 545.218C660.738 563.051 672.818 580.37 685.915 597.104V597.071Z" fill="white"/>
<path d="M659.517 544.183C654.026 532 647.441 465.681 647.781 442.759H646.403C646.29 450.427 646.95 462.923 648.083 476.633C643.611 474.663 640.724 471.05 640.724 452.89H639.346C639.346 471.149 642.082 475.566 648.196 478.012C650.498 505.17 654.611 536.581 658.234 544.643C663.612 556.564 691.67 596.841 691.934 597.186L693.123 596.562C692.84 596.201 664.857 556.022 659.517 544.183Z" fill="black"/>
<path d="M684.368 595.035C682.688 597.104 680.782 598.565 685.556 601.324C689.33 603.442 689.462 605.149 690.613 607.415C691.363 609.625 691.669 611.93 691.519 614.229C691.519 614.229 697.859 605.905 696.01 600.536C694.161 595.166 684.368 595.035 684.368 595.035Z" fill="#455A64"/>
<path d="M704.689 590.273C706.475 591.913 708.576 593.268 710.897 594.28C712.501 595.15 714.162 595.922 714.671 597.564C714.671 597.744 713.728 598.729 713.747 598.91C713.828 599.693 713.797 600.482 713.652 601.258C713.294 603.967 711.596 605.97 711.218 608.663C711.095 609.739 710.874 610.804 710.558 611.849C710.286 613.121 710.166 614.414 710.199 615.707C710.105 617.054 709.992 618.4 709.916 619.747C709.832 620.319 709.832 620.898 709.916 621.471C710.048 622.045 699.519 626.659 695.274 628.432C695.022 628.538 694.764 628.631 694.5 628.712C691.91 629.325 689.151 629.091 686.745 628.055C678.292 625.378 678.82 622.718 678.82 622.718C678.863 621.617 679.263 620.548 679.974 619.636C680.686 618.724 681.679 618.005 682.839 617.563C683.354 617.302 683.897 617.088 684.462 616.922V616.922C686.565 616.243 688.859 616.145 691.028 616.643C691.456 615.55 691.655 614.399 691.613 613.244C691.786 611.519 691.818 609.785 691.708 608.056C691.333 606.102 690.463 604.245 689.16 602.621C687.368 600.47 685.386 597.695 684.198 596.184C683.009 594.674 682.688 591.029 689.726 586.645C696.481 582.458 701.425 583.361 702.387 585.085C702.923 586.885 703.696 588.626 704.689 590.273V590.273Z" fill="#455A64"/>
<path d="M678.707 622.735C678.707 617.661 686.141 615.116 690.991 616.61C686.028 615.806 679.424 617.809 678.707 622.735Z" fill="white"/>
<path opacity="0.1" d="M686.519 619.27C687.083 618.018 688.148 616.986 689.519 616.364C690.016 616.414 690.508 616.496 690.991 616.61C690.142 617.316 687.104 618.367 686.519 619.27Z" fill="black"/>
<path d="M715.653 599.156C717.539 599.846 715.973 602.44 713.766 606.463C711.771 609.436 710.974 612.903 711.501 616.315C711.954 619.878 710.992 621.618 709.218 622.883C707.445 624.147 694.274 629.155 694.274 629.155C697.406 625.713 699.22 621.504 699.463 617.119C700.18 609.271 701.048 604.23 705.539 600.798C706.935 599.815 708.591 599.15 710.357 598.863C712.123 598.577 713.943 598.677 715.653 599.156V599.156Z" fill="black"/>
<path d="M678.707 622.718C678.914 624.262 683.952 627.382 689.896 627.316C695.84 627.25 696.349 626.15 697.274 620.091C698.199 614.032 698.84 605.609 701.859 602.03C704.878 598.45 708.841 596.283 714.634 597.596C715.294 597.876 717.086 599.435 716.426 600.88C716.426 600.88 716.426 599.731 714.049 599.123C712.011 598.614 709.577 598.664 706.18 601.225C702.199 604.197 701.312 611.208 700.859 617.218C700.406 623.227 698.255 628.991 692.538 629.533C690.07 629.823 687.559 629.642 685.18 629.001C682.801 628.36 680.611 627.275 678.763 625.822C678.406 624.813 678.386 623.736 678.707 622.718Z" fill="#37474F"/>
<path d="M644.63 336.032C643.86 335.088 643.385 333.986 643.253 332.835C643.12 331.683 643.335 330.522 643.875 329.464C644.837 327.329 646.837 325.08 652.668 322.453C659.612 319.333 678.669 317.1 688.104 327.953C689.463 329.595 670.707 360.218 671.631 366.572C666.763 362.123 650.706 346.475 650.706 346.475C646.932 345.063 644.592 343.864 643.781 340.744C643.487 339.135 643.784 337.486 644.63 336.032Z" fill="#263238"/>
<path d="M650.705 346.393C645.045 345.095 641.441 340.777 644.63 335.983C642.214 340.908 645.441 344.488 650.705 346.393Z" fill="white"/>
<path d="M644.629 336.032C642.252 333.766 642.837 330.121 644.629 327.691C646.711 325.333 649.489 323.511 652.668 322.42C651.218 323.146 649.819 323.947 648.479 324.817C644.535 327.198 641.592 332.206 644.705 336.032H644.629Z" fill="white"/>
<path d="M647.498 344.751C647.498 344.751 642.346 352.057 642.931 352.665C644.116 353.485 645.378 354.215 646.705 354.849L647.498 344.751Z" fill="#F0997A"/>
<path d="M647.498 344.751C646.214 347.099 644.667 349.315 643.403 351.647C643.233 352.024 642.875 352.468 643.12 352.731C643.444 353.056 643.826 353.333 644.252 353.552C643.743 353.305 642.893 353.108 642.78 352.517C643.819 349.708 645.415 347.08 647.498 344.751Z" fill="white"/>
<path d="M653.875 331.385C650.422 332.814 647.441 335.112 646.328 341.697C646.045 343.421 647.592 345.769 646.894 348.051C643.894 357.903 647.46 366.113 649.649 367.837C651.12 369.052 658.857 369.594 662.857 368.608C667.933 367.377 678.971 363.042 684.236 356.129C690.425 347.92 691.783 337.083 684.972 332.699C675.367 326.525 657.555 329.874 653.875 331.385Z" fill="#FFBDA7"/>
<path d="M646.366 341.697C646.366 343.93 647.875 346.113 647.007 348.396C645.403 354.75 645.29 362.303 649.687 367.837C644.856 362.484 644.856 354.701 646.705 348.33C647.573 346.163 646.139 343.946 646.366 341.762V341.697Z" fill="white"/>
<path d="M680.273 360.776L682.273 372.877C685.387 373.452 685.67 376.654 684.16 379.068L684.896 382.483L663.612 385.8L661.234 368.871L680.273 360.776Z" fill="#FFBDA7"/>
<path d="M650.102 368.083C651.988 368.953 655.857 369.593 661.253 368.937L660.932 366.539C659.221 367.099 657.46 367.538 655.668 367.853C653.836 368.169 651.96 368.246 650.102 368.083V368.083Z" fill="#F0997A"/>
<path d="M648.781 334.899C648.637 336.32 649.064 337.74 649.99 338.916C650.916 340.093 652.282 340.954 653.856 341.352C653.016 342.925 652.702 344.672 652.951 346.393C653.022 347.409 653.425 348.387 654.114 349.21C654.803 350.034 655.748 350.668 656.838 351.039C658.328 351.483 658.725 350.908 659.31 349.873C660.064 348.412 661.027 346.179 664.631 346.59C668.763 347.082 669.857 352.501 667.442 356.047C666.978 356.797 666.312 357.437 665.499 357.912C664.687 358.387 663.754 358.682 662.781 358.773C662.246 358.766 661.718 358.66 661.234 358.462C660.749 358.263 660.318 357.978 659.97 357.624C659.97 357.624 660.234 362.352 667.235 365.16C671.613 367.187 676.685 367.77 681.518 366.802C684.773 363.657 687.84 360.369 690.708 356.95C698.255 347.361 699.859 329.809 686.934 326.656C686.311 326.508 674.556 325.014 668.82 326.164C651.139 329.447 648.818 334.16 648.781 334.899Z" fill="#263238"/>
<path d="M680.688 325.425C679.125 326.405 678.052 327.867 677.688 329.513C677.526 330.334 677.616 331.177 677.947 331.958C678.278 332.739 678.84 333.43 679.575 333.963C683.349 336.541 689.236 333.536 689.934 329.727C690.727 325.228 684.5 322.962 680.688 325.425Z" fill="#92E3A9"/>
<path d="M683.764 326.853C679.896 328.922 677.481 333.799 679.537 337.313C680.103 338.265 680.896 339.119 681.424 340.12C682.915 343.322 680.745 346.852 680.273 350.284C679.95 353.008 680.492 355.757 681.839 358.231C683.123 360.054 685.953 360.513 687.085 362.418C687.859 363.732 687.33 365.341 687.632 366.802C688.293 369.938 692.557 371.449 696.237 371.515C697.792 371.634 699.359 371.455 700.826 370.99C702.293 370.525 703.625 369.784 704.728 368.822C705.572 367.681 706.491 366.585 707.482 365.538C709.671 363.748 713.143 363.896 715.558 362.254C716.452 361.568 717.151 360.712 717.603 359.752C718.055 358.792 718.246 357.755 718.162 356.721C717.94 354.648 717.301 352.625 716.275 350.744C714.709 347.46 715.955 345.342 716.747 342.009C717.119 340.208 716.776 338.352 715.774 336.743C714.773 335.135 713.173 333.871 711.237 333.158C708.577 332.239 705.331 332.387 703.18 330.728C702.16 329.677 701.203 328.581 700.312 327.444C696.274 323.586 688.311 324.44 683.764 326.853Z" fill="#263238"/>
<path d="M698.954 382.778C698.105 380.772 696.762 378.951 695.018 377.444C693.274 375.938 691.171 374.783 688.859 374.06C686.972 373.567 682.273 372.877 682.273 372.877C683.349 375.012 681.537 376.424 678.349 377.064C674.254 377.902 668.008 377.984 663.763 375.537L662.027 374.601C657.394 375.592 652.822 376.787 648.328 378.181C647.403 378.559 642.29 380.053 634.252 395.766C630.817 402.482 631.836 409.296 638.158 414.14C638.516 418.393 635.365 427.965 635.365 427.965C633.763 435.954 633.395 444.094 634.271 452.168C634.271 452.168 638.044 460.87 667.971 460.772C691.123 460.772 702.765 450.92 702.765 450.92C702.482 445.994 693.576 428.704 694.463 422.892C695.84 414.419 704.765 399.231 698.954 382.778Z" fill="#92E3A9"/>
<path d="M648.328 378.181C654.423 382.499 654.894 388.427 653.989 396.423C653.083 404.42 643.856 429.41 641.969 434.845C640.082 440.28 637.384 442.168 632.629 446.569C627.874 450.969 616.76 457.964 611.231 461.97C608.665 463.826 606.382 465.763 603.948 467.783C601.288 469.735 598.477 471.523 595.532 473.136C594.156 473.955 592.554 474.442 590.89 474.548C589.834 474.548 588.909 474.121 587.909 474.186C586.909 474.252 586.022 474.942 584.928 474.778C583.833 474.613 582.739 473.645 581.55 473.53C580.29 473.545 579.03 473.496 577.776 473.382C576.783 473.061 575.711 472.965 574.663 473.103C573.682 473.267 572.191 474.104 571.267 473.398C570.342 472.692 570.851 471.559 571.455 470.722C572.79 469.155 574.669 468.003 576.814 467.438C578.937 466.674 581.111 466.022 583.324 465.484C585.406 464.998 587.339 464.118 588.985 462.906C590.155 462.134 591.098 460.788 589.154 460.443C586.852 460.033 583.815 460.312 581.984 458.686C580.739 457.57 581.475 456.535 583.003 456.24C585.515 455.757 587.981 455.109 590.381 454.302C592.834 453.481 595.155 452.447 597.627 451.692C598.945 451.321 600.287 451.02 601.646 450.788C605.42 450.115 607.59 447.34 609.929 444.96C613.212 441.676 618.854 435.403 622.685 430.904L628.478 406.521C632.138 393.287 633.421 382.187 648.328 378.181Z" fill="#FFBDA7"/>
<path d="M653.951 396.423C652.479 403.648 650.455 410.778 647.894 417.769C647.705 418.343 647.498 418.902 647.309 419.411C644.988 426.258 642.743 432.431 641.912 434.829C640.214 439.755 637.818 441.791 633.836 445.403L632.572 446.552C627.61 451.133 616.703 457.948 611.175 461.97C608.627 463.826 606.325 465.747 603.91 467.766C601.244 469.724 598.426 471.518 595.476 473.136C594.097 473.949 592.495 474.431 590.834 474.531C589.777 474.613 588.853 474.104 587.852 474.17C586.852 474.236 585.966 474.925 584.871 474.761C583.777 474.597 582.682 473.628 581.494 473.53C580.233 473.54 578.973 473.485 577.72 473.366C576.724 473.052 575.655 472.956 574.606 473.086C574.304 473.086 573.946 473.267 573.569 473.382L573.097 473.513C572.884 473.582 572.662 473.626 572.436 473.645C572.225 473.681 572.008 473.677 571.799 473.632C571.59 473.586 571.395 473.501 571.229 473.382C570.191 472.594 570.795 471.559 571.399 470.722C572.732 469.154 574.612 468.002 576.757 467.438C578.88 466.669 581.054 466.011 583.267 465.468C585.349 464.981 587.282 464.101 588.928 462.89C590.098 462.118 591.041 460.788 589.098 460.427C586.796 460.016 583.758 460.296 581.946 458.686C580.682 457.553 581.418 456.519 582.947 456.223C585.459 455.743 587.926 455.095 590.324 454.286C592.777 453.465 595.117 452.431 597.57 451.692C598.884 451.31 600.227 451.008 601.589 450.789C605.363 450.115 607.533 447.324 609.873 444.96C613.156 441.676 618.798 435.387 622.647 430.888L628.421 406.505C632.082 393.205 633.421 382.105 648.271 378.115C649.804 379.196 651.085 380.523 652.045 382.023C654.573 385.898 654.63 390.611 653.951 396.423Z" fill="#FFBDA7"/>
<path d="M571.153 473.398C570.802 473.088 570.592 472.676 570.564 472.241C570.537 471.806 570.692 471.376 571.002 471.034C572.418 468.653 575.493 467.635 578.21 466.831C580.017 466.092 581.917 465.541 583.871 465.189C585.725 464.69 587.468 463.918 589.022 462.906C587.552 464.055 585.833 464.937 583.966 465.501C580.197 466.305 576.577 467.565 573.21 469.244C571.965 470.115 569.795 471.937 571.229 473.333L571.153 473.398Z" fill="white"/>
<path d="M581.984 458.752C579.644 456.42 584.173 456.125 585.871 455.632C590.362 454.631 594.325 452.48 598.74 451.396C601.004 451.095 603.17 450.384 605.099 449.311C608.174 447.193 611.477 442.94 614.024 440.264L622.515 430.855C624.402 422.645 627.402 409.854 629.647 401.513C632.044 391.661 635.723 381.136 648.328 378.181C635.912 381.251 632.289 391.711 629.987 401.579C627.723 410.051 625.006 422.448 622.873 431.134L614.307 440.526C611.684 443.219 608.457 447.39 605.269 449.573C603.314 450.65 601.122 451.36 598.834 451.659C594.419 452.726 590.4 454.828 585.909 455.764C584.192 456.24 579.701 456.453 581.984 458.801V458.752Z" fill="white"/>
<path opacity="0.3" d="M690.991 484.991C690.99 485.628 691.193 486.253 691.576 486.797C691.972 486.37 692.312 485.845 692.651 485.516C693.41 484.878 694.336 484.41 695.35 484.153C696.45 483.603 697.515 483 698.538 482.347C699.557 481.822 700.916 482.134 702.105 481.625C703.293 481.116 703.331 480.213 704.124 479.621C704.916 479.03 706.011 478.998 706.765 478.39C708.049 477.46 709.02 476.246 709.577 474.876C710.878 472.066 711.949 469.18 712.785 466.239C713.388 463.366 713.936 460.624 714.766 457.816C716.539 451.741 720.766 440.658 721.691 434.418C722.578 428.441 721.936 426.471 719.804 421.118C717.672 415.766 709.803 389.921 705.18 382.91C700.803 376.342 697.161 375.455 688.557 373.978L688.047 373.863L687.179 373.698L686.5 373.567L685.632 373.419L685.122 373.337L683.877 373.124L682.934 372.976H682.688H682.292L681.292 366.917H681.537C683.066 365.275 684.745 363.715 686.5 361.876C686.714 362.092 686.898 362.329 687.047 362.582C687.84 363.896 687.292 365.489 687.594 366.95C688.255 370.103 692.519 371.597 696.199 371.679C697.755 371.792 699.321 371.608 700.788 371.14C702.255 370.672 703.586 369.932 704.69 368.97C705.54 367.833 706.46 366.737 707.445 365.686C709.633 363.896 713.105 364.044 715.539 362.402C716.431 361.711 717.128 360.852 717.576 359.889C718.024 358.927 718.212 357.888 718.124 356.852C717.911 354.778 717.272 352.753 716.238 350.875C714.671 347.591 715.917 345.473 716.709 342.156C717.083 340.356 716.744 338.498 715.746 336.887C714.749 335.277 713.152 334.008 711.218 333.29C708.539 332.37 705.294 332.534 703.142 330.86C702.128 329.808 701.177 328.712 700.293 327.576C697.274 324.702 692.085 324.456 687.745 325.507C686.673 324.86 685.389 324.532 684.085 324.571C678.198 320.597 670.518 319.645 663.933 320.105C661.454 321.011 659.214 322.346 657.347 324.029C651.422 329.136 647.913 336.639 649.46 343.733C649.762 345.063 650.234 346.343 650.479 347.673C651.102 351.072 650.234 354.537 650.253 357.985C650.271 361.433 651.517 365.242 654.951 366.934C657.555 368.198 660.744 367.952 663.706 368.28C668.574 368.822 668.008 371.433 668.197 375.028C668.279 375.579 668.228 376.138 668.046 376.67C667.971 376.862 667.856 377.04 667.706 377.196C666.442 378.559 662.857 379.101 661.272 379.56C658.131 380.223 655.062 381.124 652.102 382.253C650.742 382.854 649.565 383.726 648.667 384.798C645.063 389.199 643.535 394.436 642.007 399.576C640.591 404.338 639.101 409.099 637.535 413.828C636.126 418.119 634.654 422.388 633.119 426.635C631.925 430.5 630.135 434.206 627.798 437.653C624.874 441.544 620.685 444.566 616.911 447.882C608.363 455.403 601.212 465.024 589.777 468.637C585.381 470.016 580.663 470.394 576.154 471.445C574.588 471.806 572.814 472.528 572.38 473.793C572.606 473.774 572.828 473.73 573.04 473.661L573.512 473.53C573.889 473.415 574.248 473.3 574.55 473.234C575.598 473.104 576.667 473.2 577.663 473.513C578.916 473.633 580.177 473.687 581.437 473.678C582.626 473.776 583.513 474.728 584.815 474.909C586.117 475.09 586.702 474.384 587.796 474.318C588.89 474.252 589.683 474.761 590.777 474.679C592.439 474.579 594.04 474.097 595.419 473.283C598.37 471.665 601.188 469.871 603.853 467.914C606.269 465.895 608.571 463.974 611.118 462.118C616.647 458.095 627.553 451.281 632.516 446.7L633.78 445.551C637.742 441.955 640.139 439.935 641.837 434.993C642.667 432.596 644.913 426.422 647.233 419.575L647.818 417.933C648.689 418.856 649.145 420.023 649.101 421.217C649.8 429.197 651.988 437.275 653.479 445.222C654.536 450.887 655.611 456.552 656.102 462.266C656.479 466.404 656.536 470.476 656.611 474.679L657.064 504.234C657.064 505.876 657.064 507.518 657.159 509.259C657.183 513.91 657.549 518.555 658.253 523.166C658.868 527.23 659.884 531.241 661.291 535.153C661.63 536.105 661.989 537.057 662.385 538.01C666.291 547.451 672.424 556.071 678.33 564.577C684.321 573.665 689.696 583.051 694.425 592.687C695.394 594.372 696.105 596.161 696.538 598.007C697.142 601.192 696.142 604.427 695.859 607.645C695.576 610.863 695.991 613.95 695.859 617.103C695.94 620.276 694.885 623.392 692.84 626.019C691.365 627.673 689.323 628.875 687.009 629.451C688.822 629.725 690.671 629.775 692.5 629.598C693.555 629.514 694.571 629.21 695.463 628.712C700.131 626.998 704.692 625.069 709.124 622.932C710.898 621.7 711.86 619.944 711.426 616.364C710.881 612.954 711.672 609.483 713.671 606.512C714.882 604.707 715.809 602.769 716.426 600.749C716.898 599.353 715.237 597.908 714.539 597.629C714.068 595.987 712.407 595.199 710.766 594.345C708.45 593.334 706.355 591.978 704.576 590.339C703.555 588.686 702.763 586.933 702.218 585.118C701.976 584.718 701.601 584.392 701.142 584.182C698.237 576.908 691.915 561.785 690.047 556.646C686.538 546.909 684.972 543.395 678.915 537.977C678.915 537.977 682.254 509.604 684.198 488.964L686.538 485.401C686.783 485.024 687.028 484.662 687.292 484.301C689.912 480.584 692.973 477.117 696.425 473.957C696.765 473.645 697.104 473.284 697.444 472.939C696.935 473.678 696.444 474.416 695.878 475.139C693.632 478.127 690.821 481.329 690.991 484.991ZM702.539 451.133L702.765 450.953C702.651 449.885 702.417 448.829 702.067 447.8C701.633 446.405 701.029 444.746 700.369 442.956C700.161 442.398 699.935 441.823 699.708 441.314C698.935 439.311 698.104 437.177 697.35 435.108C697.104 434.468 696.878 433.827 696.67 433.203C696.463 432.579 696.18 431.824 695.972 431.167C695.765 430.51 695.67 430.231 695.538 429.771C695.538 429.624 695.444 429.46 695.406 429.312C695.368 429.164 695.236 428.704 695.161 428.425C695.01 427.883 694.878 427.374 694.783 426.882L694.67 426.34C694.661 426.214 694.661 426.088 694.67 425.962C694.615 425.724 694.577 425.482 694.557 425.24V424.747C694.539 424.452 694.539 424.156 694.557 423.86C694.537 423.576 694.537 423.291 694.557 423.007C695.067 420.458 695.767 417.94 696.651 415.47C697.255 413.565 697.935 411.529 698.538 409.362C700.331 412.268 702.067 415.174 703.803 418.097C705.294 420.408 706.557 422.825 707.577 425.322C709.652 431.003 709.143 437.16 708.35 443.088C707.522 449.849 705.8 456.505 703.218 462.923C703.77 458.988 703.54 455 702.539 451.133V451.133Z" fill="black"/>
</svg>
